{
	"patcher" : 	{
		"fileversion" : 1,
		"appversion" : 		{
			"major" : 8,
			"minor" : 1,
			"revision" : 5,
			"architecture" : "x64",
			"modernui" : 1
		}
,
		"classnamespace" : "dsp.gen",
		"rect" : [ 149.0, 572.0, 745.0, 390.0 ],
		"bglocked" : 0,
		"openinpresentation" : 0,
		"default_fontsize" : 12.0,
		"default_fontface" : 0,
		"default_fontname" : "Arial",
		"gridonopen" : 1,
		"gridsize" : [ 15.0, 15.0 ],
		"gridsnaponopen" : 1,
		"objectsnaponopen" : 1,
		"statusbarvisible" : 2,
		"toolbarvisible" : 1,
		"lefttoolbarpinned" : 0,
		"toptoolbarpinned" : 0,
		"righttoolbarpinned" : 0,
		"bottomtoolbarpinned" : 0,
		"toolbars_unpinned_last_save" : 0,
		"tallnewobj" : 0,
		"boxanimatetime" : 200,
		"enablehscroll" : 1,
		"enablevscroll" : 1,
		"devicewidth" : 0.0,
		"description" : "",
		"digest" : "",
		"tags" : "",
		"style" : "",
		"subpatcher_template" : "",
		"assistshowspatchername" : 0,
		"boxes" : [ 			{
				"box" : 				{
					"id" : "obj-9",
					"maxclass" : "comment",
					"numinlets" : 1,
					"numoutlets" : 0,
					"patching_rect" : [ 67.0, 363.0, 333.0, 20.0 ],
					"text" : "https://cycling74.com/forums/zero-delay-feedback-svf-in-gen/"
				}

			}
, 			{
				"box" : 				{
					"fontname" : "Arial",
					"fontsize" : 12.0,
					"id" : "obj-6",
					"maxclass" : "newobj",
					"numinlets" : 0,
					"numoutlets" : 1,
					"outlettype" : [ "" ],
					"patching_rect" : [ 691.0, 16.0, 28.0, 22.0 ],
					"text" : "in 3"
				}

			}
, 			{
				"box" : 				{
					"fontname" : "Arial",
					"fontsize" : 12.0,
					"id" : "obj-7",
					"maxclass" : "newobj",
					"numinlets" : 1,
					"numoutlets" : 0,
					"patching_rect" : [ 691.0, 320.0, 37.0, 22.0 ],
					"text" : "out 3"
				}

			}
, 			{
				"box" : 				{
					"fontname" : "Arial",
					"fontsize" : 12.0,
					"id" : "obj-5",
					"maxclass" : "newobj",
					"numinlets" : 1,
					"numoutlets" : 0,
					"patching_rect" : [ 357.5, 320.0, 37.0, 22.0 ],
					"text" : "out 2"
				}

			}
, 			{
				"box" : 				{
					"fontname" : "Arial",
					"fontsize" : 12.0,
					"id" : "obj-1",
					"maxclass" : "newobj",
					"numinlets" : 0,
					"numoutlets" : 1,
					"outlettype" : [ "" ],
					"patching_rect" : [ 24.0, 16.0, 30.0, 22.0 ],
					"text" : "in 1"
				}

			}
, 			{
				"box" : 				{
					"fontname" : "Arial",
					"fontsize" : 12.0,
					"id" : "obj-2",
					"maxclass" : "newobj",
					"numinlets" : 0,
					"numoutlets" : 1,
					"outlettype" : [ "" ],
					"patching_rect" : [ 357.5, 16.0, 30.0, 22.0 ],
					"text" : "in 2"
				}

			}
, 			{
				"box" : 				{
					"code" : "History s1(0.), s2(0.);\r\n//Param r(0.);\r\nr = in3;\r\ng = in2;\r\n// compute highpass output via Eq. 5.1:\nhp = (in1 - 2. * r * s1 - g * s1 - s2) / (1. + 2. * r * g + g * g);\r\n\r\n// compute bandpass output by applying 1st integrator to highpass output:\nbp = g * hp + s1; \ns1 = g * hp + bp; // state update in 1st integrator \r\n\r\n// compute lowpass output by applying 2nd integrator to bandpass output:\nlp = g * bp + s2; \ns2 = g * bp + lp; // state update in 2nd integrator\r\nout1 = lp;\r\nout2 = bp;\r\nout3 = hp;",
					"fontface" : 0,
					"fontname" : "<Monospaced>",
					"fontsize" : 12.0,
					"id" : "obj-3",
					"maxclass" : "codebox",
					"numinlets" : 3,
					"numoutlets" : 3,
					"outlettype" : [ "", "", "" ],
					"patching_rect" : [ 24.0, 47.0, 686.0, 266.0 ]
				}

			}
, 			{
				"box" : 				{
					"fontname" : "Arial",
					"fontsize" : 12.0,
					"id" : "obj-4",
					"maxclass" : "newobj",
					"numinlets" : 1,
					"numoutlets" : 0,
					"patching_rect" : [ 24.0, 320.0, 37.0, 22.0 ],
					"text" : "out 1"
				}

			}
, 			{
				"box" : 				{
					"background" : 1,
					"id" : "obj-41",
					"maxclass" : "panel",
					"numinlets" : 1,
					"numoutlets" : 0,
					"patching_rect" : [ 12.5, 8.0, 724.333333333333258, 347.0 ],
					"rounded" : 0,
					"style" : "borrowed"
				}

			}
 ],
		"lines" : [ 			{
				"patchline" : 				{
					"destination" : [ "obj-3", 0 ],
					"source" : [ "obj-1", 0 ]
				}

			}
, 			{
				"patchline" : 				{
					"destination" : [ "obj-3", 1 ],
					"source" : [ "obj-2", 0 ]
				}

			}
, 			{
				"patchline" : 				{
					"destination" : [ "obj-4", 0 ],
					"source" : [ "obj-3", 0 ]
				}

			}
, 			{
				"patchline" : 				{
					"destination" : [ "obj-5", 0 ],
					"source" : [ "obj-3", 1 ]
				}

			}
, 			{
				"patchline" : 				{
					"destination" : [ "obj-7", 0 ],
					"source" : [ "obj-3", 2 ]
				}

			}
, 			{
				"patchline" : 				{
					"destination" : [ "obj-3", 2 ],
					"source" : [ "obj-6", 0 ]
				}

			}
 ],
		"autosave" : 0,
		"styles" : [ 			{
				"name" : "borrowed",
				"default" : 				{
					"bgfillcolor" : 					{
						"type" : "color",
						"color1" : [ 0.909803921568627, 0.419607843137255, 0.996078431372549, 1.0 ],
						"color2" : [ 0.2, 0.2, 0.2, 1.0 ],
						"color" : [ 0.627450980392157, 0.0, 0.243137254901961, 1.0 ],
						"angle" : 270.0,
						"proportion" : 0.5,
						"autogradient" : 0.0
					}

				}
,
				"parentstyle" : "",
				"multi" : 0
			}
 ],
		"bgcolor" : [ 0.9, 0.9, 0.9, 1.0 ]
	}

}
