{
	"patcher" : 	{
		"fileversion" : 1,
		"appversion" : 		{
			"major" : 8,
			"minor" : 1,
			"revision" : 5,
			"architecture" : "x64",
			"modernui" : 1
		}
,
		"classnamespace" : "box",
		"rect" : [ 124.0, 144.0, 941.0, 808.0 ],
		"bglocked" : 0,
		"openinpresentation" : 1,
		"default_fontsize" : 12.0,
		"default_fontface" : 0,
		"default_fontname" : "Arial",
		"gridonopen" : 1,
		"gridsize" : [ 15.0, 15.0 ],
		"gridsnaponopen" : 1,
		"objectsnaponopen" : 1,
		"statusbarvisible" : 2,
		"toolbarvisible" : 1,
		"lefttoolbarpinned" : 0,
		"toptoolbarpinned" : 0,
		"righttoolbarpinned" : 0,
		"bottomtoolbarpinned" : 0,
		"toolbars_unpinned_last_save" : 0,
		"tallnewobj" : 0,
		"boxanimatetime" : 200,
		"enablehscroll" : 1,
		"enablevscroll" : 1,
		"devicewidth" : 0.0,
		"description" : "",
		"digest" : "",
		"tags" : "",
		"style" : "",
		"subpatcher_template" : "",
		"assistshowspatchername" : 0,
		"boxes" : [ 			{
				"box" : 				{
					"id" : "obj-9",
					"maxclass" : "newobj",
					"numinlets" : 1,
					"numoutlets" : 4,
					"outlettype" : [ "", "", "", "" ],
					"patching_rect" : [ 508.833333333333314, 20.5, 135.0, 22.0 ],
					"restore" : 					{
						"filtergraph~" : [ 1, 0, 5, 1, 0, 1, 250.0, 1.0, 0.5 ],
						"live.dial" : [ 249.999999999999915 ],
						"live.dial[1]" : [ 0.5 ],
						"live.dial[2]" : [ 0.0 ],
						"umenu" : [ 4 ]
					}
,
					"text" : "autopattr @autoname 1",
					"varname" : "u022012283"
				}

			}
, 			{
				"box" : 				{
					"id" : "obj-14",
					"maxclass" : "newobj",
					"numinlets" : 2,
					"numoutlets" : 1,
					"outlettype" : [ "int" ],
					"patching_rect" : [ 73.0, 168.5, 29.5, 22.0 ],
					"text" : "- 1"
				}

			}
, 			{
				"box" : 				{
					"id" : "obj-10",
					"maxclass" : "comment",
					"numinlets" : 1,
					"numoutlets" : 0,
					"patching_rect" : [ 178.0, 20.5, 39.0, 20.0 ],
					"text" : "mode"
				}

			}
, 			{
				"box" : 				{
					"comment" : "mode: 1-lp; 2-hp; 3-bp; 4-notch; 5-node; 6-lshelf; 7-hshelf; 8-res; 9-allpass",
					"id" : "obj-8",
					"index" : 0,
					"maxclass" : "inlet",
					"numinlets" : 0,
					"numoutlets" : 1,
					"outlettype" : [ "" ],
					"patching_rect" : [ 182.5, 38.5, 30.0, 30.0 ]
				}

			}
, 			{
				"box" : 				{
					"id" : "obj-19",
					"maxclass" : "newobj",
					"numinlets" : 1,
					"numoutlets" : 1,
					"outlettype" : [ "" ],
					"patching_rect" : [ 348.5, 257.5, 39.0, 22.0 ],
					"text" : "dbtoa"
				}

			}
, 			{
				"box" : 				{
					"id" : "obj-11",
					"maxclass" : "message",
					"numinlets" : 2,
					"numoutlets" : 1,
					"outlettype" : [ "" ],
					"patching_rect" : [ 73.0, 306.0, 70.0, 22.0 ],
					"text" : "0, active $1"
				}

			}
, 			{
				"box" : 				{
					"id" : "obj-6",
					"maxclass" : "newobj",
					"numinlets" : 2,
					"numoutlets" : 1,
					"outlettype" : [ "int" ],
					"patching_rect" : [ 88.5, 276.0, 29.5, 22.0 ],
					"text" : "> 3"
				}

			}
, 			{
				"box" : 				{
					"id" : "obj-5",
					"maxclass" : "newobj",
					"numinlets" : 2,
					"numoutlets" : 1,
					"outlettype" : [ "int" ],
					"patching_rect" : [ 52.0, 276.0, 29.5, 22.0 ],
					"text" : "+ 1"
				}

			}
, 			{
				"box" : 				{
					"id" : "obj-1",
					"maxclass" : "newobj",
					"numinlets" : 1,
					"numoutlets" : 1,
					"outlettype" : [ "" ],
					"patching_rect" : [ 52.0, 470.0, 112.0, 22.0 ],
					"text" : "prepend edit_mode"
				}

			}
, 			{
				"box" : 				{
					"fontsize" : 9.321341175785573,
					"id" : "obj-3",
					"maxclass" : "message",
					"numinlets" : 2,
					"numoutlets" : 1,
					"outlettype" : [ "" ],
					"patching_rect" : [ 152.500000000000028, 299.5, 29.0, 19.0 ],
					"presentation" : 1,
					"presentation_rect" : [ 54.833333333333314, 98.0, 56.0, 19.0 ],
					"text" : "clear"
				}

			}
, 			{
				"box" : 				{
					"fontface" : 0,
					"fontname" : "Arial",
					"fontsize" : 13.0,
					"id" : "obj-17",
					"items" : [ "lowpass", ",", "highpass", ",", "bandpass", ",", "bandstop", ",", "peaknotch", ",", "lowshelf", ",", "highshelf", ",", "resonant", ",", "allpass" ],
					"labelclick" : 1,
					"maxclass" : "umenu",
					"numinlets" : 1,
					"numoutlets" : 3,
					"outlettype" : [ "int", "", "" ],
					"parameter_enable" : 0,
					"patching_rect" : [ 52.0, 235.5, 100.0, 23.0 ],
					"presentation" : 1,
					"presentation_rect" : [ 2.833333333333314, 5.0, 108.0, 23.0 ],
					"varname" : "umenu"
				}

			}
, 			{
				"box" : 				{
					"args" : [ 1 ],
					"bgmode" : 0,
					"border" : 0,
					"clickthrough" : 0,
					"enablehscroll" : 0,
					"enablevscroll" : 0,
					"id" : "obj-103",
					"lockeddragscroll" : 0,
					"maxclass" : "bpatcher",
					"name" : "df.modparam.maxpat",
					"numinlets" : 4,
					"numoutlets" : 3,
					"offset" : [ 0.0, 0.0 ],
					"outlettype" : [ "signal", "", "float" ],
					"patching_rect" : [ 298.5, 225.0, 49.0, 13.0 ],
					"presentation" : 1,
					"presentation_rect" : [ 83.833333333333314, 34.0, 22.0, 13.0 ],
					"varname" : "df.modparam[2]",
					"viewvisibility" : 1
				}

			}
, 			{
				"box" : 				{
					"activedialcolor" : [ 0.988235294117647, 0.949019607843137, 0.415686274509804, 1.0 ],
					"id" : "obj-97",
					"maxclass" : "live.dial",
					"numinlets" : 1,
					"numoutlets" : 2,
					"outlettype" : [ "", "float" ],
					"parameter_enable" : 1,
					"patching_rect" : [ 298.5, 137.5, 27.0, 48.0 ],
					"presentation" : 1,
					"presentation_rect" : [ 83.833333333333314, 48.0, 27.0, 48.0 ],
					"saved_attribute_attributes" : 					{
						"valueof" : 						{
							"parameter_initial" : [ 0.0 ],
							"parameter_initial_enable" : 1,
							"parameter_longname" : "gain",
							"parameter_mmax" : 30.0,
							"parameter_mmin" : -30.0,
							"parameter_shortname" : "gain",
							"parameter_type" : 0,
							"parameter_unitstyle" : 1
						}

					}
,
					"varname" : "live.dial[2]"
				}

			}
, 			{
				"box" : 				{
					"id" : "obj-96",
					"maxclass" : "newobj",
					"numinlets" : 1,
					"numoutlets" : 1,
					"outlettype" : [ "signal" ],
					"patching_rect" : [ 298.5, 257.5, 46.0, 22.0 ],
					"text" : "dbtoa~"
				}

			}
, 			{
				"box" : 				{
					"bgcolor" : [ 0.901960784313726, 0.901960784313726, 0.901960784313726, 1.0 ],
					"curvecolor" : [ 0.0, 0.0, 0.0, 1.0 ],
					"domain" : [ 1.0, 22000.0 ],
					"fontface" : 0,
					"id" : "obj-84",
					"ignoreclick" : 1,
					"linmarkers" : [ 0.0, 11025.0, 16537.5 ],
					"logmarkers" : [ 0.0, 100.0, 1000.0, 10000.0 ],
					"markercolor" : [ 0.349019607843137, 0.349019607843137, 0.349019607843137, 0.0 ],
					"maxclass" : "filtergraph~",
					"nfilters" : 1,
					"numinlets" : 8,
					"numoutlets" : 7,
					"outlettype" : [ "list", "float", "float", "float", "float", "list", "int" ],
					"parameter_enable" : 0,
					"patching_rect" : [ 88.5, 514.0, 256.0, 128.0 ],
					"presentation" : 1,
					"presentation_rect" : [ 2.833333333333314, 122.0, 108.0, 54.0 ],
					"range" : [ 0.031622998416424, 31.627769470214844 ],
					"setfilter" : [ 0, 5, 1, 0, 1, 250.0, 1.0, 0.5, 0.100000001490116, 22000.0, 0.031622998416424, 31.622777938842773, 0.0, 250.0 ],
					"textcolor" : [ 0.552941176470588, 0.552941176470588, 0.552941176470588, 1.0 ],
					"varname" : "filtergraph~"
				}

			}
, 			{
				"box" : 				{
					"id" : "obj-70",
					"maxclass" : "comment",
					"numinlets" : 1,
					"numoutlets" : 0,
					"patching_rect" : [ 412.0, 79.0, 19.0, 20.0 ],
					"text" : "q"
				}

			}
, 			{
				"box" : 				{
					"id" : "obj-69",
					"maxclass" : "comment",
					"numinlets" : 1,
					"numoutlets" : 0,
					"patching_rect" : [ 324.0, 79.0, 31.0, 20.0 ],
					"text" : "gain"
				}

			}
, 			{
				"box" : 				{
					"id" : "obj-68",
					"maxclass" : "comment",
					"numinlets" : 1,
					"numoutlets" : 0,
					"patching_rect" : [ 241.0, 79.0, 38.0, 20.0 ],
					"text" : "cutoff"
				}

			}
, 			{
				"box" : 				{
					"comment" : "R out",
					"id" : "obj-62",
					"index" : 0,
					"maxclass" : "outlet",
					"numinlets" : 1,
					"numoutlets" : 0,
					"patching_rect" : [ 190.500000000000057, 410.0, 30.0, 30.0 ]
				}

			}
, 			{
				"box" : 				{
					"comment" : "L out",
					"id" : "obj-61",
					"index" : 0,
					"maxclass" : "outlet",
					"numinlets" : 1,
					"numoutlets" : 0,
					"patching_rect" : [ 152.500000000000028, 410.0, 30.0, 30.0 ]
				}

			}
, 			{
				"box" : 				{
					"id" : "obj-60",
					"maxclass" : "comment",
					"numinlets" : 1,
					"numoutlets" : 0,
					"patching_rect" : [ 137.500000000000057, 24.5, 30.0, 20.0 ],
					"text" : "R in"
				}

			}
, 			{
				"box" : 				{
					"comment" : "R in",
					"id" : "obj-59",
					"index" : 0,
					"maxclass" : "inlet",
					"numinlets" : 0,
					"numoutlets" : 1,
					"outlettype" : [ "" ],
					"patching_rect" : [ 137.500000000000057, 46.5, 30.0, 30.0 ]
				}

			}
, 			{
				"box" : 				{
					"id" : "obj-58",
					"maxclass" : "newobj",
					"numinlets" : 6,
					"numoutlets" : 1,
					"outlettype" : [ "signal" ],
					"patching_rect" : [ 190.500000000000057, 365.0, 226.999999999999972, 22.0 ],
					"text" : "biquad~"
				}

			}
, 			{
				"box" : 				{
					"id" : "obj-57",
					"maxclass" : "comment",
					"numinlets" : 1,
					"numoutlets" : 0,
					"patching_rect" : [ 99.500000000000028, 24.5, 27.0, 20.0 ],
					"text" : "L in"
				}

			}
, 			{
				"box" : 				{
					"comment" : "(sig) quotient 0.-1.",
					"id" : "obj-55",
					"index" : 0,
					"maxclass" : "inlet",
					"numinlets" : 0,
					"numoutlets" : 1,
					"outlettype" : [ "" ],
					"patching_rect" : [ 412.0, 103.5, 30.0, 30.0 ]
				}

			}
, 			{
				"box" : 				{
					"comment" : "(sig) gain 0.-1.",
					"id" : "obj-54",
					"index" : 0,
					"maxclass" : "inlet",
					"numinlets" : 0,
					"numoutlets" : 1,
					"outlettype" : [ "" ],
					"patching_rect" : [ 328.5, 103.5, 30.0, 30.0 ]
				}

			}
, 			{
				"box" : 				{
					"comment" : "(sig) cutoff 0.-22000.",
					"id" : "obj-53",
					"index" : 0,
					"maxclass" : "inlet",
					"numinlets" : 0,
					"numoutlets" : 1,
					"outlettype" : [ "" ],
					"patching_rect" : [ 244.5, 103.5, 30.0, 30.0 ]
				}

			}
, 			{
				"box" : 				{
					"comment" : "L in",
					"id" : "obj-52",
					"index" : 0,
					"maxclass" : "inlet",
					"numinlets" : 0,
					"numoutlets" : 1,
					"outlettype" : [ "" ],
					"patching_rect" : [ 99.500000000000028, 46.5, 30.0, 30.0 ]
				}

			}
, 			{
				"box" : 				{
					"args" : [ 1 ],
					"bgmode" : 0,
					"border" : 0,
					"clickthrough" : 0,
					"enablehscroll" : 0,
					"enablevscroll" : 0,
					"id" : "obj-33",
					"lockeddragscroll" : 0,
					"maxclass" : "bpatcher",
					"name" : "df.modparam.maxpat",
					"numinlets" : 4,
					"numoutlets" : 3,
					"offset" : [ 0.0, 0.0 ],
					"outlettype" : [ "signal", "", "float" ],
					"patching_rect" : [ 382.0, 228.5, 49.0, 13.0 ],
					"presentation" : 1,
					"presentation_rect" : [ 54.833333333333314, 34.0, 22.0, 13.0 ],
					"varname" : "df.modparam[1]",
					"viewvisibility" : 1
				}

			}
, 			{
				"box" : 				{
					"args" : [ 1 ],
					"bgmode" : 0,
					"border" : 0,
					"clickthrough" : 0,
					"enablehscroll" : 0,
					"enablevscroll" : 0,
					"id" : "obj-32",
					"lockeddragscroll" : 0,
					"maxclass" : "bpatcher",
					"name" : "df.modparam.maxpat",
					"numinlets" : 4,
					"numoutlets" : 3,
					"offset" : [ 0.0, 0.0 ],
					"outlettype" : [ "signal", "", "float" ],
					"patching_rect" : [ 214.5, 251.0, 49.0, 13.0 ],
					"presentation" : 1,
					"presentation_rect" : [ 5.833333333333314, 34.0, 22.0, 13.0 ],
					"varname" : "df.modparam",
					"viewvisibility" : 1
				}

			}
, 			{
				"box" : 				{
					"activedialcolor" : [ 0.988235294117647, 0.784313725490196, 0.415686274509804, 1.0 ],
					"id" : "obj-13",
					"maxclass" : "live.dial",
					"numinlets" : 1,
					"numoutlets" : 2,
					"outlettype" : [ "", "float" ],
					"parameter_enable" : 1,
					"patching_rect" : [ 382.0, 161.5, 27.0, 48.0 ],
					"presentation" : 1,
					"presentation_rect" : [ 54.833333333333314, 48.0, 27.0, 48.0 ],
					"saved_attribute_attributes" : 					{
						"valueof" : 						{
							"parameter_exponent" : 8.0,
							"parameter_initial" : [ 0.5 ],
							"parameter_initial_enable" : 1,
							"parameter_longname" : "q",
							"parameter_mmax" : 250.0,
							"parameter_shortname" : "q",
							"parameter_type" : 0,
							"parameter_unitstyle" : 1
						}

					}
,
					"varname" : "live.dial[1]"
				}

			}
, 			{
				"box" : 				{
					"activedialcolor" : [ 0.419607843137255, 0.427450980392157, 0.992156862745098, 1.0 ],
					"appearance" : 3,
					"id" : "obj-12",
					"maxclass" : "live.dial",
					"numinlets" : 1,
					"numoutlets" : 2,
					"outlettype" : [ "", "float" ],
					"parameter_enable" : 1,
					"patching_rect" : [ 214.5, 168.5, 50.0, 63.0 ],
					"presentation" : 1,
					"presentation_rect" : [ 2.833333333333314, 48.0, 50.0, 63.0 ],
					"saved_attribute_attributes" : 					{
						"valueof" : 						{
							"parameter_exponent" : 5.0,
							"parameter_initial" : [ 250.0 ],
							"parameter_initial_enable" : 1,
							"parameter_longname" : "cutoff",
							"parameter_mmax" : 22000.0,
							"parameter_mmin" : 1.0,
							"parameter_shortname" : "cutoff",
							"parameter_type" : 0,
							"parameter_unitstyle" : 1
						}

					}
,
					"varname" : "live.dial"
				}

			}
, 			{
				"box" : 				{
					"id" : "obj-4",
					"maxclass" : "newobj",
					"numinlets" : 6,
					"numoutlets" : 1,
					"outlettype" : [ "signal" ],
					"patching_rect" : [ 152.500000000000028, 337.0, 226.999999999999972, 22.0 ],
					"text" : "biquad~"
				}

			}
, 			{
				"box" : 				{
					"id" : "obj-2",
					"maxclass" : "newobj",
					"numinlets" : 3,
					"numoutlets" : 5,
					"outlettype" : [ "signal", "signal", "signal", "signal", "signal" ],
					"patching_rect" : [ 214.5, 295.0, 187.0, 22.0 ],
					"text" : "filtercoeff~ lowpass"
				}

			}
, 			{
				"box" : 				{
					"angle" : 270.0,
					"background" : 1,
					"bgcolor" : [ 0.996078431372549, 0.996078431372549, 0.996078431372549, 1.0 ],
					"id" : "obj-110",
					"maxclass" : "panel",
					"mode" : 0,
					"numinlets" : 1,
					"numoutlets" : 0,
					"patching_rect" : [ 38.0, 691.0, 26.0, 26.0 ],
					"presentation" : 1,
					"presentation_rect" : [ -2.0, 0.0, 120.0, 185.0 ],
					"proportion" : 0.5,
					"rounded" : 0
				}

			}
 ],
		"lines" : [ 			{
				"patchline" : 				{
					"destination" : [ "obj-84", 0 ],
					"source" : [ "obj-1", 0 ]
				}

			}
, 			{
				"patchline" : 				{
					"destination" : [ "obj-96", 0 ],
					"source" : [ "obj-103", 0 ]
				}

			}
, 			{
				"patchline" : 				{
					"destination" : [ "obj-97", 0 ],
					"midpoints" : [ 338.0, 248.0, 290.0, 248.0, 290.0, 126.5, 308.0, 126.5 ],
					"source" : [ "obj-103", 2 ]
				}

			}
, 			{
				"patchline" : 				{
					"destination" : [ "obj-97", 0 ],
					"midpoints" : [ 323.0, 248.0, 290.5, 248.0, 290.5, 126.5, 308.0, 126.5 ],
					"source" : [ "obj-103", 1 ]
				}

			}
, 			{
				"patchline" : 				{
					"destination" : [ "obj-97", 0 ],
					"hidden" : 1,
					"source" : [ "obj-11", 0 ]
				}

			}
, 			{
				"patchline" : 				{
					"destination" : [ "obj-32", 0 ],
					"order" : 1,
					"source" : [ "obj-12", 0 ]
				}

			}
, 			{
				"patchline" : 				{
					"destination" : [ "obj-84", 5 ],
					"order" : 0,
					"source" : [ "obj-12", 0 ]
				}

			}
, 			{
				"patchline" : 				{
					"destination" : [ "obj-33", 0 ],
					"order" : 1,
					"source" : [ "obj-13", 0 ]
				}

			}
, 			{
				"patchline" : 				{
					"destination" : [ "obj-84", 7 ],
					"order" : 0,
					"source" : [ "obj-13", 0 ]
				}

			}
, 			{
				"patchline" : 				{
					"destination" : [ "obj-17", 0 ],
					"source" : [ "obj-14", 0 ]
				}

			}
, 			{
				"patchline" : 				{
					"destination" : [ "obj-2", 0 ],
					"source" : [ "obj-17", 1 ]
				}

			}
, 			{
				"patchline" : 				{
					"destination" : [ "obj-5", 0 ],
					"order" : 1,
					"source" : [ "obj-17", 0 ]
				}

			}
, 			{
				"patchline" : 				{
					"destination" : [ "obj-6", 0 ],
					"order" : 0,
					"source" : [ "obj-17", 0 ]
				}

			}
, 			{
				"patchline" : 				{
					"destination" : [ "obj-84", 6 ],
					"source" : [ "obj-19", 0 ]
				}

			}
, 			{
				"patchline" : 				{
					"destination" : [ "obj-4", 5 ],
					"order" : 1,
					"source" : [ "obj-2", 4 ]
				}

			}
, 			{
				"patchline" : 				{
					"destination" : [ "obj-4", 4 ],
					"order" : 1,
					"source" : [ "obj-2", 3 ]
				}

			}
, 			{
				"patchline" : 				{
					"destination" : [ "obj-4", 3 ],
					"order" : 1,
					"source" : [ "obj-2", 2 ]
				}

			}
, 			{
				"patchline" : 				{
					"destination" : [ "obj-4", 2 ],
					"order" : 1,
					"source" : [ "obj-2", 1 ]
				}

			}
, 			{
				"patchline" : 				{
					"destination" : [ "obj-4", 1 ],
					"order" : 1,
					"source" : [ "obj-2", 0 ]
				}

			}
, 			{
				"patchline" : 				{
					"destination" : [ "obj-58", 5 ],
					"order" : 0,
					"source" : [ "obj-2", 4 ]
				}

			}
, 			{
				"patchline" : 				{
					"destination" : [ "obj-58", 4 ],
					"order" : 0,
					"source" : [ "obj-2", 3 ]
				}

			}
, 			{
				"patchline" : 				{
					"destination" : [ "obj-58", 3 ],
					"order" : 0,
					"source" : [ "obj-2", 2 ]
				}

			}
, 			{
				"patchline" : 				{
					"destination" : [ "obj-58", 2 ],
					"order" : 0,
					"source" : [ "obj-2", 1 ]
				}

			}
, 			{
				"patchline" : 				{
					"destination" : [ "obj-58", 1 ],
					"order" : 0,
					"source" : [ "obj-2", 0 ]
				}

			}
, 			{
				"patchline" : 				{
					"destination" : [ "obj-4", 0 ],
					"order" : 1,
					"source" : [ "obj-3", 0 ]
				}

			}
, 			{
				"patchline" : 				{
					"destination" : [ "obj-58", 0 ],
					"order" : 0,
					"source" : [ "obj-3", 0 ]
				}

			}
, 			{
				"patchline" : 				{
					"destination" : [ "obj-12", 0 ],
					"midpoints" : [ 254.0, 274.0, 274.0, 274.0, 274.0, 157.5, 224.0, 157.5 ],
					"source" : [ "obj-32", 2 ]
				}

			}
, 			{
				"patchline" : 				{
					"destination" : [ "obj-12", 0 ],
					"midpoints" : [ 239.0, 274.0, 274.5, 274.0, 274.5, 157.5, 224.0, 157.5 ],
					"source" : [ "obj-32", 1 ]
				}

			}
, 			{
				"patchline" : 				{
					"destination" : [ "obj-2", 0 ],
					"source" : [ "obj-32", 0 ]
				}

			}
, 			{
				"patchline" : 				{
					"destination" : [ "obj-13", 0 ],
					"midpoints" : [ 421.5, 251.5, 436.5, 251.5, 436.5, 150.5, 391.5, 150.5 ],
					"source" : [ "obj-33", 2 ]
				}

			}
, 			{
				"patchline" : 				{
					"destination" : [ "obj-13", 0 ],
					"midpoints" : [ 406.5, 251.5, 437.0, 251.5, 437.0, 150.5, 391.5, 150.5 ],
					"source" : [ "obj-33", 1 ]
				}

			}
, 			{
				"patchline" : 				{
					"destination" : [ "obj-2", 2 ],
					"source" : [ "obj-33", 0 ]
				}

			}
, 			{
				"patchline" : 				{
					"destination" : [ "obj-61", 0 ],
					"source" : [ "obj-4", 0 ]
				}

			}
, 			{
				"patchline" : 				{
					"destination" : [ "obj-1", 0 ],
					"source" : [ "obj-5", 0 ]
				}

			}
, 			{
				"patchline" : 				{
					"destination" : [ "obj-4", 0 ],
					"source" : [ "obj-52", 0 ]
				}

			}
, 			{
				"patchline" : 				{
					"destination" : [ "obj-32", 1 ],
					"source" : [ "obj-53", 0 ]
				}

			}
, 			{
				"patchline" : 				{
					"destination" : [ "obj-103", 1 ],
					"source" : [ "obj-54", 0 ]
				}

			}
, 			{
				"patchline" : 				{
					"destination" : [ "obj-33", 1 ],
					"source" : [ "obj-55", 0 ]
				}

			}
, 			{
				"patchline" : 				{
					"destination" : [ "obj-62", 0 ],
					"source" : [ "obj-58", 0 ]
				}

			}
, 			{
				"patchline" : 				{
					"destination" : [ "obj-58", 0 ],
					"source" : [ "obj-59", 0 ]
				}

			}
, 			{
				"patchline" : 				{
					"destination" : [ "obj-11", 0 ],
					"source" : [ "obj-6", 0 ]
				}

			}
, 			{
				"patchline" : 				{
					"destination" : [ "obj-14", 0 ],
					"source" : [ "obj-8", 0 ]
				}

			}
, 			{
				"patchline" : 				{
					"destination" : [ "obj-2", 1 ],
					"source" : [ "obj-96", 0 ]
				}

			}
, 			{
				"patchline" : 				{
					"destination" : [ "obj-103", 0 ],
					"order" : 1,
					"source" : [ "obj-97", 0 ]
				}

			}
, 			{
				"patchline" : 				{
					"destination" : [ "obj-19", 0 ],
					"order" : 0,
					"source" : [ "obj-97", 0 ]
				}

			}
 ],
		"parameters" : 		{
			"obj-103::obj-1" : [ "live.text[3]", "live.text", 0 ],
			"obj-12" : [ "cutoff", "cutoff", 0 ],
			"obj-13" : [ "q", "q", 0 ],
			"obj-32::obj-1" : [ "live.text[1]", "live.text", 0 ],
			"obj-33::obj-1" : [ "live.text[2]", "live.text", 0 ],
			"obj-97" : [ "gain", "gain", 0 ],
			"parameterbanks" : 			{

			}
,
			"parameter_overrides" : 			{
				"obj-103::obj-1" : 				{
					"parameter_longname" : "live.text[3]"
				}
,
				"obj-32::obj-1" : 				{
					"parameter_longname" : "live.text[1]"
				}
,
				"obj-33::obj-1" : 				{
					"parameter_longname" : "live.text[2]"
				}

			}
,
			"inherited_shortname" : 1
		}
,
		"dependency_cache" : [ 			{
				"name" : "df.modparam.maxpat",
				"bootpath" : "/Volumes/Libraries/Google Drive/max/df.s2/current/lib/abs",
				"patcherrelativepath" : ".",
				"type" : "JSON",
				"implicit" : 1
			}
 ],
		"autosave" : 0
	}

}
