{
	"patcher" : 	{
		"fileversion" : 1,
		"appversion" : 		{
			"major" : 8,
			"minor" : 1,
			"revision" : 5,
			"architecture" : "x64",
			"modernui" : 1
		}
,
		"classnamespace" : "box",
		"rect" : [ 291.0, 223.0, 640.0, 480.0 ],
		"bglocked" : 0,
		"openinpresentation" : 1,
		"default_fontsize" : 12.0,
		"default_fontface" : 0,
		"default_fontname" : "Arial",
		"gridonopen" : 1,
		"gridsize" : [ 15.0, 15.0 ],
		"gridsnaponopen" : 1,
		"objectsnaponopen" : 1,
		"statusbarvisible" : 2,
		"toolbarvisible" : 1,
		"lefttoolbarpinned" : 0,
		"toptoolbarpinned" : 0,
		"righttoolbarpinned" : 0,
		"bottomtoolbarpinned" : 0,
		"toolbars_unpinned_last_save" : 0,
		"tallnewobj" : 0,
		"boxanimatetime" : 200,
		"enablehscroll" : 1,
		"enablevscroll" : 1,
		"devicewidth" : 0.0,
		"description" : "",
		"digest" : "",
		"tags" : "",
		"style" : "",
		"subpatcher_template" : "",
		"assistshowspatchername" : 0,
		"boxes" : [ 			{
				"box" : 				{
					"comment" : "note (0-127)",
					"id" : "obj-3",
					"index" : 0,
					"maxclass" : "outlet",
					"numinlets" : 1,
					"numoutlets" : 0,
					"patching_rect" : [ 131.0, 254.0, 30.0, 30.0 ]
				}

			}
, 			{
				"box" : 				{
					"comment" : "trigger (b)",
					"id" : "obj-1",
					"index" : 0,
					"maxclass" : "outlet",
					"numinlets" : 1,
					"numoutlets" : 0,
					"patching_rect" : [ 33.0, 254.0, 30.0, 30.0 ]
				}

			}
, 			{
				"box" : 				{
					"id" : "obj-127",
					"maxclass" : "button",
					"numinlets" : 1,
					"numoutlets" : 1,
					"outlettype" : [ "bang" ],
					"parameter_enable" : 0,
					"patching_rect" : [ 33.0, 205.0, 24.0, 24.0 ],
					"varname" : "button"
				}

			}
, 			{
				"box" : 				{
					"id" : "obj-124",
					"maxclass" : "newobj",
					"numinlets" : 2,
					"numoutlets" : 1,
					"outlettype" : [ "signal" ],
					"patching_rect" : [ 76.0, 183.0, 61.0, 22.0 ],
					"text" : "df.liner 20"
				}

			}
, 			{
				"box" : 				{
					"fontname" : "Arial",
					"fontsize" : 12.0,
					"id" : "obj-359",
					"maxclass" : "newobj",
					"numinlets" : 1,
					"numoutlets" : 1,
					"outlettype" : [ "signal" ],
					"patching_rect" : [ 76.0, 215.5, 39.0, 22.0 ],
					"text" : "mtof~"
				}

			}
, 			{
				"box" : 				{
					"id" : "obj-358",
					"maxclass" : "kslider",
					"numinlets" : 2,
					"numoutlets" : 2,
					"outlettype" : [ "int", "int" ],
					"parameter_enable" : 0,
					"patching_rect" : [ 33.0, 88.0, 504.0, 76.0 ],
					"presentation" : 1,
					"presentation_rect" : [ 0.0, 0.0, 252.0, 41.0 ],
					"varname" : "kslider"
				}

			}
, 			{
				"box" : 				{
					"comment" : "freq (sig)",
					"id" : "obj-128",
					"index" : 0,
					"maxclass" : "outlet",
					"numinlets" : 1,
					"numoutlets" : 0,
					"patching_rect" : [ 76.0, 254.0, 30.0, 30.0 ]
				}

			}
, 			{
				"box" : 				{
					"angle" : 270.0,
					"background" : 1,
					"bgcolor" : [ 0.996078431372549, 0.996078431372549, 0.996078431372549, 1.0 ],
					"id" : "obj-2",
					"maxclass" : "panel",
					"mode" : 0,
					"numinlets" : 1,
					"numoutlets" : 0,
					"patching_rect" : [ 217.0, 231.0, 34.0, 32.0 ],
					"presentation" : 1,
					"presentation_rect" : [ 0.0, 0.0, 591.0, 41.0 ],
					"proportion" : 0.5,
					"rounded" : 0
				}

			}
 ],
		"lines" : [ 			{
				"patchline" : 				{
					"destination" : [ "obj-359", 0 ],
					"source" : [ "obj-124", 0 ]
				}

			}
, 			{
				"patchline" : 				{
					"destination" : [ "obj-1", 0 ],
					"source" : [ "obj-127", 0 ]
				}

			}
, 			{
				"patchline" : 				{
					"destination" : [ "obj-124", 0 ],
					"order" : 1,
					"source" : [ "obj-358", 0 ]
				}

			}
, 			{
				"patchline" : 				{
					"destination" : [ "obj-127", 0 ],
					"order" : 2,
					"source" : [ "obj-358", 0 ]
				}

			}
, 			{
				"patchline" : 				{
					"destination" : [ "obj-3", 0 ],
					"order" : 0,
					"source" : [ "obj-358", 0 ]
				}

			}
, 			{
				"patchline" : 				{
					"destination" : [ "obj-128", 0 ],
					"source" : [ "obj-359", 0 ]
				}

			}
 ],
		"dependency_cache" : [ 			{
				"name" : "df.liner.maxpat",
				"bootpath" : "~/Google Drive/max/df.s2/current/lib/abs",
				"patcherrelativepath" : ".",
				"type" : "JSON",
				"implicit" : 1
			}
 ],
		"autosave" : 0
	}

}
