{
	"patcher" : 	{
		"fileversion" : 1,
		"appversion" : 		{
			"major" : 8,
			"minor" : 1,
			"revision" : 8,
			"architecture" : "x64",
			"modernui" : 1
		}
,
		"classnamespace" : "box",
		"rect" : [ 250.0, 212.0, 1084.0, 712.0 ],
		"bglocked" : 0,
		"openinpresentation" : 1,
		"default_fontsize" : 12.0,
		"default_fontface" : 0,
		"default_fontname" : "Arial",
		"gridonopen" : 1,
		"gridsize" : [ 15.0, 15.0 ],
		"gridsnaponopen" : 1,
		"objectsnaponopen" : 1,
		"statusbarvisible" : 2,
		"toolbarvisible" : 1,
		"lefttoolbarpinned" : 0,
		"toptoolbarpinned" : 0,
		"righttoolbarpinned" : 0,
		"bottomtoolbarpinned" : 0,
		"toolbars_unpinned_last_save" : 0,
		"tallnewobj" : 0,
		"boxanimatetime" : 200,
		"enablehscroll" : 1,
		"enablevscroll" : 1,
		"devicewidth" : 0.0,
		"description" : "",
		"digest" : "",
		"tags" : "",
		"style" : "",
		"subpatcher_template" : "",
		"assistshowspatchername" : 0,
		"boxes" : [ 			{
				"box" : 				{
					"comment" : "load mod (filename) 8",
					"id" : "obj-32",
					"index" : 0,
					"maxclass" : "inlet",
					"numinlets" : 0,
					"numoutlets" : 1,
					"outlettype" : [ "" ],
					"patching_rect" : [ 592.0, 37.0, 30.0, 30.0 ]
				}

			}
, 			{
				"box" : 				{
					"comment" : "load mod (filename) 7",
					"id" : "obj-33",
					"index" : 0,
					"maxclass" : "inlet",
					"numinlets" : 0,
					"numoutlets" : 1,
					"outlettype" : [ "" ],
					"patching_rect" : [ 560.0, 37.0, 30.0, 30.0 ]
				}

			}
, 			{
				"box" : 				{
					"comment" : "load mod (filename) 6",
					"id" : "obj-34",
					"index" : 0,
					"maxclass" : "inlet",
					"numinlets" : 0,
					"numoutlets" : 1,
					"outlettype" : [ "" ],
					"patching_rect" : [ 528.0, 37.0, 30.0, 30.0 ]
				}

			}
, 			{
				"box" : 				{
					"comment" : "load mod (filename) 5",
					"id" : "obj-36",
					"index" : 0,
					"maxclass" : "inlet",
					"numinlets" : 0,
					"numoutlets" : 1,
					"outlettype" : [ "" ],
					"patching_rect" : [ 496.0, 37.0, 30.0, 30.0 ]
				}

			}
, 			{
				"box" : 				{
					"comment" : "load mod (filename) 4",
					"id" : "obj-13",
					"index" : 0,
					"maxclass" : "inlet",
					"numinlets" : 0,
					"numoutlets" : 1,
					"outlettype" : [ "" ],
					"patching_rect" : [ 462.5, 37.0, 30.0, 30.0 ]
				}

			}
, 			{
				"box" : 				{
					"comment" : "load mod (filename) 3",
					"id" : "obj-14",
					"index" : 0,
					"maxclass" : "inlet",
					"numinlets" : 0,
					"numoutlets" : 1,
					"outlettype" : [ "" ],
					"patching_rect" : [ 430.5, 37.0, 30.0, 30.0 ]
				}

			}
, 			{
				"box" : 				{
					"comment" : "load mod (filename) 2",
					"id" : "obj-15",
					"index" : 0,
					"maxclass" : "inlet",
					"numinlets" : 0,
					"numoutlets" : 1,
					"outlettype" : [ "" ],
					"patching_rect" : [ 398.5, 37.0, 30.0, 30.0 ]
				}

			}
, 			{
				"box" : 				{
					"comment" : "load mod (filename) 1",
					"id" : "obj-31",
					"index" : 0,
					"maxclass" : "inlet",
					"numinlets" : 0,
					"numoutlets" : 1,
					"outlettype" : [ "" ],
					"patching_rect" : [ 366.5, 37.0, 30.0, 30.0 ]
				}

			}
, 			{
				"box" : 				{
					"id" : "obj-11",
					"maxclass" : "newobj",
					"numinlets" : 1,
					"numoutlets" : 4,
					"outlettype" : [ "", "", "", "" ],
					"patching_rect" : [ 676.99998933333336, 41.0, 135.0, 22.0 ],
					"text" : "autopattr @autoname 1",
					"varname" : "u088018627"
				}

			}
, 			{
				"box" : 				{
					"comment" : "",
					"id" : "obj-1",
					"index" : 0,
					"maxclass" : "outlet",
					"numinlets" : 1,
					"numoutlets" : 0,
					"patching_rect" : [ 526.999997333333226, 218.0, 30.0, 30.0 ]
				}

			}
, 			{
				"box" : 				{
					"comment" : "",
					"id" : "obj-3",
					"index" : 0,
					"maxclass" : "outlet",
					"numinlets" : 1,
					"numoutlets" : 0,
					"patching_rect" : [ 564.00000533333332, 218.0, 30.0, 30.0 ]
				}

			}
, 			{
				"box" : 				{
					"comment" : "",
					"id" : "obj-4",
					"index" : 0,
					"maxclass" : "outlet",
					"numinlets" : 1,
					"numoutlets" : 0,
					"patching_rect" : [ 599.999989333333247, 218.0, 30.0, 30.0 ]
				}

			}
, 			{
				"box" : 				{
					"comment" : "",
					"id" : "obj-5",
					"index" : 0,
					"maxclass" : "outlet",
					"numinlets" : 1,
					"numoutlets" : 0,
					"patching_rect" : [ 638.99998933333336, 218.0, 30.0, 30.0 ]
				}

			}
, 			{
				"box" : 				{
					"comment" : "",
					"id" : "obj-6",
					"index" : 0,
					"maxclass" : "outlet",
					"numinlets" : 1,
					"numoutlets" : 0,
					"patching_rect" : [ 676.99998933333336, 218.0, 30.0, 30.0 ]
				}

			}
, 			{
				"box" : 				{
					"comment" : "",
					"id" : "obj-8",
					"index" : 0,
					"maxclass" : "outlet",
					"numinlets" : 1,
					"numoutlets" : 0,
					"patching_rect" : [ 715.000020333333396, 218.0, 30.0, 30.0 ]
				}

			}
, 			{
				"box" : 				{
					"comment" : "",
					"id" : "obj-9",
					"index" : 0,
					"maxclass" : "outlet",
					"numinlets" : 1,
					"numoutlets" : 0,
					"patching_rect" : [ 755.0, 218.0, 30.0, 30.0 ]
				}

			}
, 			{
				"box" : 				{
					"comment" : "",
					"id" : "obj-10",
					"index" : 0,
					"maxclass" : "outlet",
					"numinlets" : 1,
					"numoutlets" : 0,
					"patching_rect" : [ 796.0, 218.0, 30.0, 30.0 ]
				}

			}
, 			{
				"box" : 				{
					"args" : [ "seq" ],
					"bgmode" : 0,
					"border" : 1,
					"clickthrough" : 0,
					"enablehscroll" : 0,
					"enablevscroll" : 0,
					"id" : "obj-24",
					"lockeddragscroll" : 0,
					"maxclass" : "bpatcher",
					"name" : "st.mod.maxpat",
					"numinlets" : 3,
					"numoutlets" : 3,
					"offset" : [ 0.0, 0.0 ],
					"outlettype" : [ "multichannelsignal", "", "_" ],
					"patching_rect" : [ 757.0, 100.0, 90.0, 58.0 ],
					"presentation" : 1,
					"presentation_rect" : [ 626.5, -0.5, 89.5, 58.0 ],
					"varname" : "df.set_mbay[15]",
					"viewvisibility" : 1
				}

			}
, 			{
				"box" : 				{
					"args" : [ "seq" ],
					"bgmode" : 0,
					"border" : 1,
					"clickthrough" : 0,
					"enablehscroll" : 0,
					"enablevscroll" : 0,
					"id" : "obj-22",
					"lockeddragscroll" : 0,
					"maxclass" : "bpatcher",
					"name" : "st.mod.maxpat",
					"numinlets" : 3,
					"numoutlets" : 3,
					"offset" : [ 0.0, 0.0 ],
					"outlettype" : [ "multichannelsignal", "", "_" ],
					"patching_rect" : [ 656.0, 100.0, 90.0, 58.0 ],
					"presentation" : 1,
					"presentation_rect" : [ 537.0, -0.5, 89.5, 58.0 ],
					"varname" : "df.set_mbay[14]",
					"viewvisibility" : 1
				}

			}
, 			{
				"box" : 				{
					"args" : [ "seq" ],
					"bgmode" : 0,
					"border" : 1,
					"clickthrough" : 0,
					"enablehscroll" : 0,
					"enablevscroll" : 0,
					"id" : "obj-21",
					"lockeddragscroll" : 0,
					"maxclass" : "bpatcher",
					"name" : "st.mod.maxpat",
					"numinlets" : 3,
					"numoutlets" : 3,
					"offset" : [ 0.0, 0.0 ],
					"outlettype" : [ "multichannelsignal", "", "_" ],
					"patching_rect" : [ 555.000000000000114, 100.0, 90.0, 58.0 ],
					"presentation" : 1,
					"presentation_rect" : [ 447.5, -0.5, 89.5, 58.0 ],
					"varname" : "df.set_mbay[13]",
					"viewvisibility" : 1
				}

			}
, 			{
				"box" : 				{
					"args" : [ "seq" ],
					"bgmode" : 0,
					"border" : 1,
					"clickthrough" : 0,
					"enablehscroll" : 0,
					"enablevscroll" : 0,
					"id" : "obj-20",
					"lockeddragscroll" : 0,
					"maxclass" : "bpatcher",
					"name" : "st.mod.maxpat",
					"numinlets" : 3,
					"numoutlets" : 3,
					"offset" : [ 0.0, 0.0 ],
					"outlettype" : [ "multichannelsignal", "", "_" ],
					"patching_rect" : [ 454.0, 100.0, 90.0, 58.0 ],
					"presentation" : 1,
					"presentation_rect" : [ 358.0, -0.5, 89.5, 58.0 ],
					"varname" : "df.set_mbay[12]",
					"viewvisibility" : 1
				}

			}
, 			{
				"box" : 				{
					"args" : [ "seq" ],
					"bgmode" : 0,
					"border" : 1,
					"clickthrough" : 0,
					"enablehscroll" : 0,
					"enablevscroll" : 0,
					"id" : "obj-19",
					"lockeddragscroll" : 0,
					"maxclass" : "bpatcher",
					"name" : "st.mod.maxpat",
					"numinlets" : 3,
					"numoutlets" : 3,
					"offset" : [ 0.0, 0.0 ],
					"outlettype" : [ "multichannelsignal", "", "_" ],
					"patching_rect" : [ 353.0, 100.0, 90.0, 58.0 ],
					"presentation" : 1,
					"presentation_rect" : [ 268.5, -0.5, 89.5, 58.0 ],
					"varname" : "df.set_mbay[11]",
					"viewvisibility" : 1
				}

			}
, 			{
				"box" : 				{
					"args" : [ "seq" ],
					"bgmode" : 0,
					"border" : 1,
					"clickthrough" : 0,
					"enablehscroll" : 0,
					"enablevscroll" : 0,
					"id" : "obj-7",
					"lockeddragscroll" : 0,
					"maxclass" : "bpatcher",
					"name" : "st.mod.maxpat",
					"numinlets" : 3,
					"numoutlets" : 3,
					"offset" : [ 0.0, 0.0 ],
					"outlettype" : [ "multichannelsignal", "", "_" ],
					"patching_rect" : [ 252.0, 100.0, 90.0, 58.0 ],
					"presentation" : 1,
					"presentation_rect" : [ 179.0, -0.5, 89.5, 58.0 ],
					"varname" : "df.set_mbay[3]",
					"viewvisibility" : 1
				}

			}
, 			{
				"box" : 				{
					"args" : [ "seq" ],
					"bgmode" : 0,
					"border" : 1,
					"clickthrough" : 0,
					"enablehscroll" : 0,
					"enablevscroll" : 0,
					"id" : "obj-2",
					"lockeddragscroll" : 0,
					"maxclass" : "bpatcher",
					"name" : "st.mod.maxpat",
					"numinlets" : 3,
					"numoutlets" : 3,
					"offset" : [ 0.0, 0.0 ],
					"outlettype" : [ "multichannelsignal", "", "_" ],
					"patching_rect" : [ 151.0, 100.0, 90.0, 58.0 ],
					"presentation" : 1,
					"presentation_rect" : [ 89.5, -0.5, 89.5, 58.0 ],
					"varname" : "df.set_mbay[2]",
					"viewvisibility" : 1
				}

			}
, 			{
				"box" : 				{
					"args" : [ "seq" ],
					"bgmode" : 0,
					"border" : 1,
					"clickthrough" : 0,
					"enablehscroll" : 0,
					"enablevscroll" : 0,
					"id" : "obj-17",
					"lockeddragscroll" : 0,
					"maxclass" : "bpatcher",
					"name" : "st.mod.maxpat",
					"numinlets" : 3,
					"numoutlets" : 3,
					"offset" : [ 0.0, 0.0 ],
					"outlettype" : [ "multichannelsignal", "", "_" ],
					"patching_rect" : [ 50.0, 100.0, 90.0, 58.0 ],
					"presentation" : 1,
					"presentation_rect" : [ 0.0, -0.5, 89.5, 58.0 ],
					"varname" : "df.set_mbay",
					"viewvisibility" : 1
				}

			}
, 			{
				"box" : 				{
					"comment" : "",
					"id" : "obj-30",
					"index" : 0,
					"maxclass" : "outlet",
					"numinlets" : 1,
					"numoutlets" : 0,
					"patching_rect" : [ 49.999997333333255, 218.0, 30.0, 30.0 ]
				}

			}
, 			{
				"box" : 				{
					"comment" : "",
					"id" : "obj-35",
					"index" : 0,
					"maxclass" : "outlet",
					"numinlets" : 1,
					"numoutlets" : 0,
					"patching_rect" : [ 87.000005333333263, 218.0, 30.0, 30.0 ]
				}

			}
, 			{
				"box" : 				{
					"comment" : "",
					"id" : "obj-38",
					"index" : 0,
					"maxclass" : "outlet",
					"numinlets" : 1,
					"numoutlets" : 0,
					"patching_rect" : [ 124.999989333333247, 218.0, 30.0, 30.0 ]
				}

			}
, 			{
				"box" : 				{
					"comment" : "",
					"id" : "obj-41",
					"index" : 0,
					"maxclass" : "outlet",
					"numinlets" : 1,
					"numoutlets" : 0,
					"patching_rect" : [ 160.999989333333247, 218.0, 30.0, 30.0 ]
				}

			}
, 			{
				"box" : 				{
					"comment" : "",
					"id" : "obj-45",
					"index" : 0,
					"maxclass" : "outlet",
					"numinlets" : 1,
					"numoutlets" : 0,
					"patching_rect" : [ 197.999989333333247, 218.0, 30.0, 30.0 ]
				}

			}
, 			{
				"box" : 				{
					"comment" : "",
					"id" : "obj-46",
					"index" : 0,
					"maxclass" : "outlet",
					"numinlets" : 1,
					"numoutlets" : 0,
					"patching_rect" : [ 232.000020333333282, 218.0, 30.0, 30.0 ]
				}

			}
, 			{
				"box" : 				{
					"comment" : "",
					"id" : "obj-48",
					"index" : 0,
					"maxclass" : "outlet",
					"numinlets" : 1,
					"numoutlets" : 0,
					"patching_rect" : [ 269.000020333333282, 218.0, 30.0, 30.0 ]
				}

			}
, 			{
				"box" : 				{
					"comment" : "",
					"id" : "obj-50",
					"index" : 0,
					"maxclass" : "outlet",
					"numinlets" : 1,
					"numoutlets" : 0,
					"patching_rect" : [ 307.000020333333282, 218.0, 30.0, 30.0 ]
				}

			}
, 			{
				"box" : 				{
					"angle" : 270.0,
					"background" : 1,
					"bgcolor" : [ 1.0, 1.0, 1.0, 1.0 ],
					"id" : "obj-12",
					"maxclass" : "panel",
					"mode" : 0,
					"numinlets" : 1,
					"numoutlets" : 0,
					"patching_rect" : [ 819.499969000000078, 41.0, 30.0, 27.0 ],
					"presentation" : 1,
					"presentation_rect" : [ 0.0, -0.5, 1018.0, 274.0 ],
					"proportion" : 0.5,
					"rounded" : 0
				}

			}
 ],
		"lines" : [ 			{
				"patchline" : 				{
					"destination" : [ "obj-19", 2 ],
					"source" : [ "obj-13", 0 ]
				}

			}
, 			{
				"patchline" : 				{
					"destination" : [ "obj-7", 2 ],
					"source" : [ "obj-14", 0 ]
				}

			}
, 			{
				"patchline" : 				{
					"destination" : [ "obj-2", 2 ],
					"source" : [ "obj-15", 0 ]
				}

			}
, 			{
				"patchline" : 				{
					"destination" : [ "obj-1", 0 ],
					"source" : [ "obj-17", 1 ]
				}

			}
, 			{
				"patchline" : 				{
					"destination" : [ "obj-30", 0 ],
					"source" : [ "obj-17", 0 ]
				}

			}
, 			{
				"patchline" : 				{
					"destination" : [ "obj-41", 0 ],
					"source" : [ "obj-19", 0 ]
				}

			}
, 			{
				"patchline" : 				{
					"destination" : [ "obj-5", 0 ],
					"source" : [ "obj-19", 1 ]
				}

			}
, 			{
				"patchline" : 				{
					"destination" : [ "obj-3", 0 ],
					"source" : [ "obj-2", 1 ]
				}

			}
, 			{
				"patchline" : 				{
					"destination" : [ "obj-35", 0 ],
					"source" : [ "obj-2", 0 ]
				}

			}
, 			{
				"patchline" : 				{
					"destination" : [ "obj-45", 0 ],
					"source" : [ "obj-20", 0 ]
				}

			}
, 			{
				"patchline" : 				{
					"destination" : [ "obj-6", 0 ],
					"source" : [ "obj-20", 1 ]
				}

			}
, 			{
				"patchline" : 				{
					"destination" : [ "obj-46", 0 ],
					"source" : [ "obj-21", 0 ]
				}

			}
, 			{
				"patchline" : 				{
					"destination" : [ "obj-8", 0 ],
					"source" : [ "obj-21", 1 ]
				}

			}
, 			{
				"patchline" : 				{
					"destination" : [ "obj-48", 0 ],
					"source" : [ "obj-22", 0 ]
				}

			}
, 			{
				"patchline" : 				{
					"destination" : [ "obj-9", 0 ],
					"source" : [ "obj-22", 1 ]
				}

			}
, 			{
				"patchline" : 				{
					"destination" : [ "obj-10", 0 ],
					"source" : [ "obj-24", 1 ]
				}

			}
, 			{
				"patchline" : 				{
					"destination" : [ "obj-50", 0 ],
					"source" : [ "obj-24", 0 ]
				}

			}
, 			{
				"patchline" : 				{
					"destination" : [ "obj-17", 2 ],
					"source" : [ "obj-31", 0 ]
				}

			}
, 			{
				"patchline" : 				{
					"destination" : [ "obj-24", 2 ],
					"source" : [ "obj-32", 0 ]
				}

			}
, 			{
				"patchline" : 				{
					"destination" : [ "obj-22", 2 ],
					"source" : [ "obj-33", 0 ]
				}

			}
, 			{
				"patchline" : 				{
					"destination" : [ "obj-21", 2 ],
					"source" : [ "obj-34", 0 ]
				}

			}
, 			{
				"patchline" : 				{
					"destination" : [ "obj-20", 2 ],
					"source" : [ "obj-36", 0 ]
				}

			}
, 			{
				"patchline" : 				{
					"destination" : [ "obj-38", 0 ],
					"source" : [ "obj-7", 0 ]
				}

			}
, 			{
				"patchline" : 				{
					"destination" : [ "obj-4", 0 ],
					"source" : [ "obj-7", 1 ]
				}

			}
 ],
		"parameters" : 		{
			"obj-17::obj-16" : [ "live.text[233]", "live.text", 0 ],
			"obj-17::obj-30" : [ "live.text[85]", "live.text[12]", 0 ],
			"obj-17::obj-32" : [ "live.text", "live.text", 0 ],
			"obj-17::obj-38" : [ "toggle[129]", "toggle", 0 ],
			"obj-17::obj-57" : [ "live.text[220]", "live.text[12]", 0 ],
			"obj-17::obj-88" : [ "live.text[1]", "live.text", 0 ],
			"obj-19::obj-16" : [ "live.text[16]", "live.text", 0 ],
			"obj-19::obj-30" : [ "live.text[12]", "live.text[12]", 0 ],
			"obj-19::obj-32" : [ "live.text[14]", "live.text", 0 ],
			"obj-19::obj-38" : [ "toggle[3]", "toggle", 0 ],
			"obj-19::obj-57" : [ "live.text[13]", "live.text[12]", 0 ],
			"obj-19::obj-88" : [ "live.text[15]", "live.text", 0 ],
			"obj-20::obj-16" : [ "live.text[18]", "live.text", 0 ],
			"obj-20::obj-30" : [ "live.text[19]", "live.text[12]", 0 ],
			"obj-20::obj-32" : [ "live.text[21]", "live.text", 0 ],
			"obj-20::obj-38" : [ "toggle[4]", "toggle", 0 ],
			"obj-20::obj-57" : [ "live.text[20]", "live.text[12]", 0 ],
			"obj-20::obj-88" : [ "live.text[17]", "live.text", 0 ],
			"obj-21::obj-16" : [ "live.text[26]", "live.text", 0 ],
			"obj-21::obj-30" : [ "live.text[23]", "live.text[12]", 0 ],
			"obj-21::obj-32" : [ "live.text[25]", "live.text", 0 ],
			"obj-21::obj-38" : [ "toggle[5]", "toggle", 0 ],
			"obj-21::obj-57" : [ "live.text[24]", "live.text[12]", 0 ],
			"obj-21::obj-88" : [ "live.text[22]", "live.text", 0 ],
			"obj-22::obj-16" : [ "live.text[31]", "live.text", 0 ],
			"obj-22::obj-30" : [ "live.text[29]", "live.text[12]", 0 ],
			"obj-22::obj-32" : [ "live.text[27]", "live.text", 0 ],
			"obj-22::obj-38" : [ "toggle[6]", "toggle", 0 ],
			"obj-22::obj-57" : [ "live.text[30]", "live.text[12]", 0 ],
			"obj-22::obj-88" : [ "live.text[28]", "live.text", 0 ],
			"obj-24::obj-16" : [ "live.text[32]", "live.text", 0 ],
			"obj-24::obj-30" : [ "live.text[36]", "live.text[12]", 0 ],
			"obj-24::obj-32" : [ "live.text[35]", "live.text", 0 ],
			"obj-24::obj-38" : [ "toggle[7]", "toggle", 0 ],
			"obj-24::obj-57" : [ "live.text[34]", "live.text[12]", 0 ],
			"obj-24::obj-88" : [ "live.text[33]", "live.text", 0 ],
			"obj-2::obj-16" : [ "live.text[2]", "live.text", 0 ],
			"obj-2::obj-30" : [ "live.text[3]", "live.text[12]", 0 ],
			"obj-2::obj-32" : [ "live.text[4]", "live.text", 0 ],
			"obj-2::obj-38" : [ "toggle[1]", "toggle", 0 ],
			"obj-2::obj-57" : [ "live.text[5]", "live.text[12]", 0 ],
			"obj-2::obj-88" : [ "live.text[6]", "live.text", 0 ],
			"obj-7::obj-16" : [ "live.text[11]", "live.text", 0 ],
			"obj-7::obj-30" : [ "live.text[10]", "live.text[12]", 0 ],
			"obj-7::obj-32" : [ "live.text[7]", "live.text", 0 ],
			"obj-7::obj-38" : [ "toggle[2]", "toggle", 0 ],
			"obj-7::obj-57" : [ "live.text[9]", "live.text[12]", 0 ],
			"obj-7::obj-88" : [ "live.text[8]", "live.text", 0 ],
			"parameterbanks" : 			{

			}
,
			"parameter_overrides" : 			{
				"obj-19::obj-16" : 				{
					"parameter_longname" : "live.text[16]"
				}
,
				"obj-19::obj-30" : 				{
					"parameter_longname" : "live.text[12]"
				}
,
				"obj-19::obj-32" : 				{
					"parameter_longname" : "live.text[14]"
				}
,
				"obj-19::obj-57" : 				{
					"parameter_longname" : "live.text[13]"
				}
,
				"obj-19::obj-88" : 				{
					"parameter_longname" : "live.text[15]"
				}
,
				"obj-20::obj-16" : 				{
					"parameter_longname" : "live.text[18]"
				}
,
				"obj-20::obj-30" : 				{
					"parameter_longname" : "live.text[19]"
				}
,
				"obj-20::obj-32" : 				{
					"parameter_longname" : "live.text[21]"
				}
,
				"obj-20::obj-57" : 				{
					"parameter_longname" : "live.text[20]"
				}
,
				"obj-20::obj-88" : 				{
					"parameter_longname" : "live.text[17]"
				}
,
				"obj-21::obj-16" : 				{
					"parameter_longname" : "live.text[26]"
				}
,
				"obj-21::obj-30" : 				{
					"parameter_longname" : "live.text[23]"
				}
,
				"obj-21::obj-32" : 				{
					"parameter_longname" : "live.text[25]"
				}
,
				"obj-21::obj-57" : 				{
					"parameter_longname" : "live.text[24]"
				}
,
				"obj-21::obj-88" : 				{
					"parameter_longname" : "live.text[22]"
				}
,
				"obj-22::obj-16" : 				{
					"parameter_longname" : "live.text[31]"
				}
,
				"obj-22::obj-30" : 				{
					"parameter_longname" : "live.text[29]"
				}
,
				"obj-22::obj-32" : 				{
					"parameter_longname" : "live.text[27]"
				}
,
				"obj-22::obj-57" : 				{
					"parameter_longname" : "live.text[30]"
				}
,
				"obj-22::obj-88" : 				{
					"parameter_longname" : "live.text[28]"
				}
,
				"obj-24::obj-16" : 				{
					"parameter_longname" : "live.text[32]"
				}
,
				"obj-24::obj-30" : 				{
					"parameter_longname" : "live.text[36]"
				}
,
				"obj-24::obj-32" : 				{
					"parameter_longname" : "live.text[35]"
				}
,
				"obj-24::obj-57" : 				{
					"parameter_longname" : "live.text[34]"
				}
,
				"obj-24::obj-88" : 				{
					"parameter_longname" : "live.text[33]"
				}
,
				"obj-2::obj-16" : 				{
					"parameter_longname" : "live.text[2]"
				}
,
				"obj-2::obj-30" : 				{
					"parameter_longname" : "live.text[3]"
				}
,
				"obj-2::obj-32" : 				{
					"parameter_longname" : "live.text[4]"
				}
,
				"obj-2::obj-57" : 				{
					"parameter_longname" : "live.text[5]"
				}
,
				"obj-2::obj-88" : 				{
					"parameter_longname" : "live.text[6]"
				}
,
				"obj-7::obj-16" : 				{
					"parameter_longname" : "live.text[11]"
				}
,
				"obj-7::obj-30" : 				{
					"parameter_longname" : "live.text[10]"
				}
,
				"obj-7::obj-32" : 				{
					"parameter_longname" : "live.text[7]"
				}
,
				"obj-7::obj-57" : 				{
					"parameter_longname" : "live.text[9]"
				}
,
				"obj-7::obj-88" : 				{
					"parameter_longname" : "live.text[8]"
				}

			}
,
			"inherited_shortname" : 1
		}
,
		"dependency_cache" : [ 			{
				"name" : "st.mod.maxpat",
				"bootpath" : "/Volumes/Libraries/Drive/max/df.s2/current/lib/abs/st",
				"patcherrelativepath" : ".",
				"type" : "JSON",
				"implicit" : 1
			}
, 			{
				"name" : "_initpoly.maxpat",
				"bootpath" : "/Volumes/Libraries/Drive/max/df.s2/current/lib/abs/init",
				"patcherrelativepath" : "../init",
				"type" : "JSON",
				"implicit" : 1
			}
, 			{
				"name" : "df.wait.maxpat",
				"bootpath" : "/Volumes/Libraries/Drive/max/df.s2/current/lib/abs/df",
				"patcherrelativepath" : "../df",
				"type" : "JSON",
				"implicit" : 1
			}
, 			{
				"name" : "st.getModDir.maxpat",
				"bootpath" : "/Volumes/Libraries/Drive/max/df.s2/current/lib/abs/st",
				"patcherrelativepath" : ".",
				"type" : "JSON",
				"implicit" : 1
			}
, 			{
				"name" : "settings.ini",
				"bootpath" : "/Volumes/Libraries/Drive/max/df.s2/current/lib",
				"patcherrelativepath" : "../..",
				"type" : "TEXT",
				"implicit" : 1
			}
, 			{
				"name" : "df.locktoggle.maxpat",
				"bootpath" : "/Volumes/Libraries/Drive/max/df.s2/current/lib/abs/df",
				"patcherrelativepath" : "../df",
				"type" : "JSON",
				"implicit" : 1
			}
, 			{
				"name" : "df.stripext.maxpat",
				"bootpath" : "/Volumes/Libraries/Drive/max/df.s2/current/lib/abs/df",
				"patcherrelativepath" : "../df",
				"type" : "JSON",
				"implicit" : 1
			}
, 			{
				"name" : "dot.mxo",
				"type" : "iLaX"
			}
 ],
		"autosave" : 0,
		"styles" : [ 			{
				"name" : "green_it",
				"default" : 				{
					"textcolor" : [ 0.450980392156863, 0.843137254901961, 0.325490196078431, 1.0 ],
					"fontface" : [ 2 ]
				}
,
				"parentstyle" : "",
				"multi" : 0
			}
, 			{
				"name" : "inverted",
				"default" : 				{
					"textcolor_inverse" : [ 0.0, 0.0, 0.0, 1.0 ],
					"accentcolor" : [ 0.607843137254902, 0.607843137254902, 0.607843137254902, 1.0 ],
					"bgcolor" : [ 0.827450980392157, 0.827450980392157, 0.827450980392157, 1.0 ]
				}
,
				"parentstyle" : "",
				"multi" : 0
			}
, 			{
				"name" : "orange_it",
				"default" : 				{
					"textcolor" : [ 0.996078431372549, 0.803921568627451, 0.388235294117647, 1.0 ],
					"fontface" : [ 2 ]
				}
,
				"parentstyle" : "",
				"multi" : 0
			}
 ]
	}

}
