{
	"patcher" : 	{
		"fileversion" : 1,
		"appversion" : 		{
			"major" : 8,
			"minor" : 1,
			"revision" : 8,
			"architecture" : "x64",
			"modernui" : 1
		}
,
		"classnamespace" : "box",
		"rect" : [ 185.0, 210.0, 1132.0, 712.0 ],
		"bglocked" : 0,
		"openinpresentation" : 1,
		"default_fontsize" : 12.0,
		"default_fontface" : 0,
		"default_fontname" : "Arial",
		"gridonopen" : 1,
		"gridsize" : [ 15.0, 15.0 ],
		"gridsnaponopen" : 1,
		"objectsnaponopen" : 1,
		"statusbarvisible" : 2,
		"toolbarvisible" : 1,
		"lefttoolbarpinned" : 0,
		"toptoolbarpinned" : 0,
		"righttoolbarpinned" : 0,
		"bottomtoolbarpinned" : 0,
		"toolbars_unpinned_last_save" : 0,
		"tallnewobj" : 0,
		"boxanimatetime" : 200,
		"enablehscroll" : 1,
		"enablevscroll" : 1,
		"devicewidth" : 0.0,
		"description" : "",
		"digest" : "",
		"tags" : "",
		"style" : "",
		"subpatcher_template" : "",
		"assistshowspatchername" : 0,
		"boxes" : [ 			{
				"box" : 				{
					"comment" : "load mod (filename) 8",
					"id" : "obj-32",
					"index" : 0,
					"maxclass" : "inlet",
					"numinlets" : 0,
					"numoutlets" : 1,
					"outlettype" : [ "" ],
					"patching_rect" : [ 829.0, 143.0, 30.0, 30.0 ]
				}

			}
, 			{
				"box" : 				{
					"comment" : "load mod (filename) 7",
					"id" : "obj-33",
					"index" : 0,
					"maxclass" : "inlet",
					"numinlets" : 0,
					"numoutlets" : 1,
					"outlettype" : [ "" ],
					"patching_rect" : [ 797.0, 143.0, 30.0, 30.0 ]
				}

			}
, 			{
				"box" : 				{
					"comment" : "load mod (filename) 6",
					"id" : "obj-34",
					"index" : 0,
					"maxclass" : "inlet",
					"numinlets" : 0,
					"numoutlets" : 1,
					"outlettype" : [ "" ],
					"patching_rect" : [ 765.0, 143.0, 30.0, 30.0 ]
				}

			}
, 			{
				"box" : 				{
					"comment" : "load mod (filename) 5",
					"id" : "obj-36",
					"index" : 0,
					"maxclass" : "inlet",
					"numinlets" : 0,
					"numoutlets" : 1,
					"outlettype" : [ "" ],
					"patching_rect" : [ 733.0, 143.0, 30.0, 30.0 ]
				}

			}
, 			{
				"box" : 				{
					"comment" : "load mod (filename) 4",
					"id" : "obj-9",
					"index" : 0,
					"maxclass" : "inlet",
					"numinlets" : 0,
					"numoutlets" : 1,
					"outlettype" : [ "" ],
					"patching_rect" : [ 699.5, 143.0, 30.0, 30.0 ]
				}

			}
, 			{
				"box" : 				{
					"comment" : "load mod (filename) 3",
					"id" : "obj-10",
					"index" : 0,
					"maxclass" : "inlet",
					"numinlets" : 0,
					"numoutlets" : 1,
					"outlettype" : [ "" ],
					"patching_rect" : [ 667.5, 143.0, 30.0, 30.0 ]
				}

			}
, 			{
				"box" : 				{
					"comment" : "load mod (filename) 2",
					"id" : "obj-8",
					"index" : 0,
					"maxclass" : "inlet",
					"numinlets" : 0,
					"numoutlets" : 1,
					"outlettype" : [ "" ],
					"patching_rect" : [ 635.5, 143.0, 30.0, 30.0 ]
				}

			}
, 			{
				"box" : 				{
					"comment" : "load mod (filename) 1",
					"id" : "obj-31",
					"index" : 0,
					"maxclass" : "inlet",
					"numinlets" : 0,
					"numoutlets" : 1,
					"outlettype" : [ "" ],
					"patching_rect" : [ 603.5, 143.0, 30.0, 30.0 ]
				}

			}
, 			{
				"box" : 				{
					"id" : "obj-27",
					"maxclass" : "newobj",
					"numinlets" : 2,
					"numoutlets" : 1,
					"outlettype" : [ "multichannelsignal" ],
					"patching_rect" : [ 567.0, 493.0, 53.0, 22.0 ],
					"text" : "mc.*~ 1."
				}

			}
, 			{
				"box" : 				{
					"id" : "obj-28",
					"maxclass" : "newobj",
					"numinlets" : 2,
					"numoutlets" : 1,
					"outlettype" : [ "multichannelsignal" ],
					"patching_rect" : [ 510.0, 493.0, 53.0, 22.0 ],
					"text" : "mc.*~ 1."
				}

			}
, 			{
				"box" : 				{
					"id" : "obj-29",
					"maxclass" : "newobj",
					"numinlets" : 2,
					"numoutlets" : 1,
					"outlettype" : [ "multichannelsignal" ],
					"patching_rect" : [ 453.0, 493.0, 53.0, 22.0 ],
					"text" : "mc.*~ 1."
				}

			}
, 			{
				"box" : 				{
					"id" : "obj-1",
					"maxclass" : "newobj",
					"numinlets" : 2,
					"numoutlets" : 1,
					"outlettype" : [ "multichannelsignal" ],
					"patching_rect" : [ 397.0, 493.0, 53.0, 22.0 ],
					"text" : "mc.*~ 1."
				}

			}
, 			{
				"box" : 				{
					"bgmode" : 0,
					"border" : 0,
					"clickthrough" : 0,
					"enablehscroll" : 0,
					"enablevscroll" : 0,
					"id" : "obj-40",
					"lockeddragscroll" : 0,
					"maxclass" : "bpatcher",
					"name" : "st.array.sndSend.maxpat",
					"numinlets" : 1,
					"numoutlets" : 4,
					"offset" : [ 0.0, 0.0 ],
					"outlettype" : [ "multichannelsignal", "multichannelsignal", "multichannelsignal", "multichannelsignal" ],
					"patching_rect" : [ 1029.5, 329.0, 88.0, 65.0 ],
					"presentation" : 1,
					"presentation_rect" : [ 625.0, 59.5, 87.5, 61.0 ],
					"varname" : "st.routingFXBit",
					"viewvisibility" : 1
				}

			}
, 			{
				"box" : 				{
					"bgmode" : 0,
					"border" : 0,
					"clickthrough" : 0,
					"enablehscroll" : 0,
					"enablevscroll" : 0,
					"id" : "obj-3",
					"lockeddragscroll" : 0,
					"maxclass" : "bpatcher",
					"name" : "st.array.sndSend.maxpat",
					"numinlets" : 1,
					"numoutlets" : 4,
					"offset" : [ 0.0, 0.0 ],
					"outlettype" : [ "multichannelsignal", "multichannelsignal", "multichannelsignal", "multichannelsignal" ],
					"patching_rect" : [ 937.5, 329.0, 88.0, 65.0 ],
					"presentation" : 1,
					"presentation_rect" : [ 536.0, 59.5, 87.0, 61.0 ],
					"varname" : "st.routingFXBit[1]",
					"viewvisibility" : 1
				}

			}
, 			{
				"box" : 				{
					"bgmode" : 0,
					"border" : 0,
					"clickthrough" : 0,
					"enablehscroll" : 0,
					"enablevscroll" : 0,
					"id" : "obj-42",
					"lockeddragscroll" : 0,
					"maxclass" : "bpatcher",
					"name" : "st.array.sndSend.maxpat",
					"numinlets" : 1,
					"numoutlets" : 4,
					"offset" : [ 0.0, 0.0 ],
					"outlettype" : [ "multichannelsignal", "multichannelsignal", "multichannelsignal", "multichannelsignal" ],
					"patching_rect" : [ 847.5, 329.0, 88.0, 65.0 ],
					"presentation" : 1,
					"presentation_rect" : [ 447.000000000000057, 59.5, 87.0, 61.0 ],
					"varname" : "st.routingFXBit[2]",
					"viewvisibility" : 1
				}

			}
, 			{
				"box" : 				{
					"bgmode" : 0,
					"border" : 0,
					"clickthrough" : 0,
					"enablehscroll" : 0,
					"enablevscroll" : 0,
					"id" : "obj-43",
					"lockeddragscroll" : 0,
					"maxclass" : "bpatcher",
					"name" : "st.array.sndSend.maxpat",
					"numinlets" : 1,
					"numoutlets" : 4,
					"offset" : [ 0.0, 0.0 ],
					"outlettype" : [ "multichannelsignal", "multichannelsignal", "multichannelsignal", "multichannelsignal" ],
					"patching_rect" : [ 757.0, 329.0, 88.0, 65.0 ],
					"presentation" : 1,
					"presentation_rect" : [ 358.000000000000057, 59.5, 87.0, 61.0 ],
					"varname" : "st.routingFXBit[3]",
					"viewvisibility" : 1
				}

			}
, 			{
				"box" : 				{
					"bgmode" : 0,
					"border" : 0,
					"clickthrough" : 0,
					"enablehscroll" : 0,
					"enablevscroll" : 0,
					"id" : "obj-44",
					"lockeddragscroll" : 0,
					"maxclass" : "bpatcher",
					"name" : "st.array.sndSend.maxpat",
					"numinlets" : 1,
					"numoutlets" : 4,
					"offset" : [ 0.0, 0.0 ],
					"outlettype" : [ "multichannelsignal", "multichannelsignal", "multichannelsignal", "multichannelsignal" ],
					"patching_rect" : [ 666.5, 329.0, 88.0, 65.0 ],
					"presentation" : 1,
					"presentation_rect" : [ 269.000000000000057, 59.5, 87.0, 61.0 ],
					"varname" : "st.routingFXBit[4]",
					"viewvisibility" : 1
				}

			}
, 			{
				"box" : 				{
					"bgmode" : 0,
					"border" : 0,
					"clickthrough" : 0,
					"enablehscroll" : 0,
					"enablevscroll" : 0,
					"id" : "obj-4",
					"lockeddragscroll" : 0,
					"maxclass" : "bpatcher",
					"name" : "st.array.sndSend.maxpat",
					"numinlets" : 1,
					"numoutlets" : 4,
					"offset" : [ 0.0, 0.0 ],
					"outlettype" : [ "multichannelsignal", "multichannelsignal", "multichannelsignal", "multichannelsignal" ],
					"patching_rect" : [ 574.5, 329.0, 88.0, 65.0 ],
					"presentation" : 1,
					"presentation_rect" : [ 180.000000000000057, 59.5, 87.0, 61.0 ],
					"varname" : "st.routingFXBit[5]",
					"viewvisibility" : 1
				}

			}
, 			{
				"box" : 				{
					"bgmode" : 0,
					"border" : 0,
					"clickthrough" : 0,
					"enablehscroll" : 0,
					"enablevscroll" : 0,
					"id" : "obj-5",
					"lockeddragscroll" : 0,
					"maxclass" : "bpatcher",
					"name" : "st.array.sndSend.maxpat",
					"numinlets" : 1,
					"numoutlets" : 4,
					"offset" : [ 0.0, 0.0 ],
					"outlettype" : [ "multichannelsignal", "multichannelsignal", "multichannelsignal", "multichannelsignal" ],
					"patching_rect" : [ 485.5, 329.0, 88.0, 65.0 ],
					"presentation" : 1,
					"presentation_rect" : [ 91.000000000000057, 59.5, 87.0, 61.0 ],
					"varname" : "st.routingFXBit[6]",
					"viewvisibility" : 1
				}

			}
, 			{
				"box" : 				{
					"bgmode" : 0,
					"border" : 0,
					"clickthrough" : 0,
					"enablehscroll" : 0,
					"enablevscroll" : 0,
					"id" : "obj-49",
					"lockeddragscroll" : 0,
					"maxclass" : "bpatcher",
					"name" : "st.array.sndSend.maxpat",
					"numinlets" : 1,
					"numoutlets" : 4,
					"offset" : [ 0.0, 0.0 ],
					"outlettype" : [ "multichannelsignal", "multichannelsignal", "multichannelsignal", "multichannelsignal" ],
					"patching_rect" : [ 397.0, 329.0, 88.0, 65.0 ],
					"presentation" : 1,
					"presentation_rect" : [ 2.0, 59.5, 87.5, 61.0 ],
					"varname" : "st.routingFXBit[7]",
					"viewvisibility" : 1
				}

			}
, 			{
				"box" : 				{
					"comment" : "to rtn 4",
					"id" : "obj-47",
					"index" : 0,
					"maxclass" : "outlet",
					"numinlets" : 1,
					"numoutlets" : 0,
					"patching_rect" : [ 567.0, 528.0, 30.0, 30.0 ]
				}

			}
, 			{
				"box" : 				{
					"comment" : "to rtn 3",
					"id" : "obj-6",
					"index" : 0,
					"maxclass" : "outlet",
					"numinlets" : 1,
					"numoutlets" : 0,
					"patching_rect" : [ 510.0, 528.0, 30.0, 30.0 ]
				}

			}
, 			{
				"box" : 				{
					"comment" : "to rtn 2",
					"id" : "obj-51",
					"index" : 0,
					"maxclass" : "outlet",
					"numinlets" : 1,
					"numoutlets" : 0,
					"patching_rect" : [ 453.0, 528.0, 30.0, 30.0 ]
				}

			}
, 			{
				"box" : 				{
					"comment" : "to rtn 1",
					"id" : "obj-52",
					"index" : 0,
					"maxclass" : "outlet",
					"numinlets" : 1,
					"numoutlets" : 0,
					"patching_rect" : [ 397.0, 528.0, 30.0, 30.0 ]
				}

			}
, 			{
				"box" : 				{
					"comment" : "",
					"id" : "obj-26",
					"index" : 0,
					"maxclass" : "inlet",
					"numinlets" : 0,
					"numoutlets" : 1,
					"outlettype" : [ "" ],
					"patching_rect" : [ 309.000020333333282, 143.0, 30.0, 30.0 ]
				}

			}
, 			{
				"box" : 				{
					"comment" : "",
					"id" : "obj-25",
					"index" : 0,
					"maxclass" : "inlet",
					"numinlets" : 0,
					"numoutlets" : 1,
					"outlettype" : [ "" ],
					"patching_rect" : [ 271.000020333333282, 143.0, 30.0, 30.0 ]
				}

			}
, 			{
				"box" : 				{
					"comment" : "",
					"id" : "obj-23",
					"index" : 0,
					"maxclass" : "inlet",
					"numinlets" : 0,
					"numoutlets" : 1,
					"outlettype" : [ "" ],
					"patching_rect" : [ 234.000020333333282, 143.0, 30.0, 30.0 ]
				}

			}
, 			{
				"box" : 				{
					"comment" : "",
					"id" : "obj-18",
					"index" : 0,
					"maxclass" : "inlet",
					"numinlets" : 0,
					"numoutlets" : 1,
					"outlettype" : [ "" ],
					"patching_rect" : [ 199.999989333333247, 143.0, 30.0, 30.0 ]
				}

			}
, 			{
				"box" : 				{
					"comment" : "",
					"id" : "obj-16",
					"index" : 0,
					"maxclass" : "inlet",
					"numinlets" : 0,
					"numoutlets" : 1,
					"outlettype" : [ "" ],
					"patching_rect" : [ 162.999989333333247, 143.0, 30.0, 30.0 ]
				}

			}
, 			{
				"box" : 				{
					"comment" : "",
					"id" : "obj-15",
					"index" : 0,
					"maxclass" : "inlet",
					"numinlets" : 0,
					"numoutlets" : 1,
					"outlettype" : [ "" ],
					"patching_rect" : [ 126.999989333333247, 143.0, 30.0, 30.0 ]
				}

			}
, 			{
				"box" : 				{
					"comment" : "",
					"id" : "obj-14",
					"index" : 0,
					"maxclass" : "inlet",
					"numinlets" : 0,
					"numoutlets" : 1,
					"outlettype" : [ "" ],
					"patching_rect" : [ 89.000005333333263, 143.0, 30.0, 30.0 ]
				}

			}
, 			{
				"box" : 				{
					"comment" : "",
					"id" : "obj-13",
					"index" : 0,
					"maxclass" : "inlet",
					"numinlets" : 0,
					"numoutlets" : 1,
					"outlettype" : [ "" ],
					"patching_rect" : [ 52.0, 143.0, 30.0, 30.0 ]
				}

			}
, 			{
				"box" : 				{
					"id" : "obj-11",
					"maxclass" : "newobj",
					"numinlets" : 1,
					"numoutlets" : 4,
					"outlettype" : [ "", "", "", "" ],
					"patching_rect" : [ 676.99998933333336, 41.0, 135.0, 22.0 ],
					"text" : "autopattr @autoname 1",
					"varname" : "u088018627"
				}

			}
, 			{
				"box" : 				{
					"args" : [ "fx" ],
					"bgmode" : 0,
					"border" : 1,
					"clickthrough" : 0,
					"enablehscroll" : 0,
					"enablevscroll" : 0,
					"id" : "obj-24",
					"lockeddragscroll" : 0,
					"maxclass" : "bpatcher",
					"name" : "st.mod.maxpat",
					"numinlets" : 3,
					"numoutlets" : 3,
					"offset" : [ 0.0, 0.0 ],
					"outlettype" : [ "multichannelsignal", "", "_" ],
					"patching_rect" : [ 759.0, 211.0, 90.0, 58.0 ],
					"presentation" : 1,
					"presentation_rect" : [ 626.5, -0.5, 89.5, 58.0 ],
					"varname" : "df.set_mbay[15]",
					"viewvisibility" : 1
				}

			}
, 			{
				"box" : 				{
					"args" : [ "fx" ],
					"bgmode" : 0,
					"border" : 1,
					"clickthrough" : 0,
					"enablehscroll" : 0,
					"enablevscroll" : 0,
					"id" : "obj-22",
					"lockeddragscroll" : 0,
					"maxclass" : "bpatcher",
					"name" : "st.mod.maxpat",
					"numinlets" : 3,
					"numoutlets" : 3,
					"offset" : [ 0.0, 0.0 ],
					"outlettype" : [ "multichannelsignal", "", "_" ],
					"patching_rect" : [ 658.0, 211.0, 90.0, 58.0 ],
					"presentation" : 1,
					"presentation_rect" : [ 537.0, -0.5, 89.5, 58.0 ],
					"varname" : "df.set_mbay[14]",
					"viewvisibility" : 1
				}

			}
, 			{
				"box" : 				{
					"args" : [ "fx" ],
					"bgmode" : 0,
					"border" : 1,
					"clickthrough" : 0,
					"enablehscroll" : 0,
					"enablevscroll" : 0,
					"id" : "obj-21",
					"lockeddragscroll" : 0,
					"maxclass" : "bpatcher",
					"name" : "st.mod.maxpat",
					"numinlets" : 3,
					"numoutlets" : 3,
					"offset" : [ 0.0, 0.0 ],
					"outlettype" : [ "multichannelsignal", "", "_" ],
					"patching_rect" : [ 557.000000000000114, 211.0, 90.0, 58.0 ],
					"presentation" : 1,
					"presentation_rect" : [ 447.5, -0.5, 89.5, 58.0 ],
					"varname" : "df.set_mbay[13]",
					"viewvisibility" : 1
				}

			}
, 			{
				"box" : 				{
					"args" : [ "fx" ],
					"bgmode" : 0,
					"border" : 1,
					"clickthrough" : 0,
					"enablehscroll" : 0,
					"enablevscroll" : 0,
					"id" : "obj-20",
					"lockeddragscroll" : 0,
					"maxclass" : "bpatcher",
					"name" : "st.mod.maxpat",
					"numinlets" : 3,
					"numoutlets" : 3,
					"offset" : [ 0.0, 0.0 ],
					"outlettype" : [ "multichannelsignal", "", "_" ],
					"patching_rect" : [ 456.0, 211.0, 90.0, 58.0 ],
					"presentation" : 1,
					"presentation_rect" : [ 358.0, -0.5, 89.5, 58.0 ],
					"varname" : "df.set_mbay[12]",
					"viewvisibility" : 1
				}

			}
, 			{
				"box" : 				{
					"args" : [ "fx" ],
					"bgmode" : 0,
					"border" : 1,
					"clickthrough" : 0,
					"enablehscroll" : 0,
					"enablevscroll" : 0,
					"id" : "obj-19",
					"lockeddragscroll" : 0,
					"maxclass" : "bpatcher",
					"name" : "st.mod.maxpat",
					"numinlets" : 3,
					"numoutlets" : 3,
					"offset" : [ 0.0, 0.0 ],
					"outlettype" : [ "multichannelsignal", "", "_" ],
					"patching_rect" : [ 355.0, 211.0, 90.0, 58.0 ],
					"presentation" : 1,
					"presentation_rect" : [ 268.5, -0.5, 89.5, 58.0 ],
					"varname" : "df.set_mbay[11]",
					"viewvisibility" : 1
				}

			}
, 			{
				"box" : 				{
					"args" : [ "fx" ],
					"bgmode" : 0,
					"border" : 1,
					"clickthrough" : 0,
					"enablehscroll" : 0,
					"enablevscroll" : 0,
					"id" : "obj-7",
					"lockeddragscroll" : 0,
					"maxclass" : "bpatcher",
					"name" : "st.mod.maxpat",
					"numinlets" : 3,
					"numoutlets" : 3,
					"offset" : [ 0.0, 0.0 ],
					"outlettype" : [ "multichannelsignal", "", "_" ],
					"patching_rect" : [ 254.0, 211.0, 90.0, 58.0 ],
					"presentation" : 1,
					"presentation_rect" : [ 179.0, -0.5, 89.5, 58.0 ],
					"varname" : "df.set_mbay[3]",
					"viewvisibility" : 1
				}

			}
, 			{
				"box" : 				{
					"args" : [ "fx" ],
					"bgmode" : 0,
					"border" : 1,
					"clickthrough" : 0,
					"enablehscroll" : 0,
					"enablevscroll" : 0,
					"id" : "obj-2",
					"lockeddragscroll" : 0,
					"maxclass" : "bpatcher",
					"name" : "st.mod.maxpat",
					"numinlets" : 3,
					"numoutlets" : 3,
					"offset" : [ 0.0, 0.0 ],
					"outlettype" : [ "multichannelsignal", "", "_" ],
					"patching_rect" : [ 153.0, 211.0, 90.0, 58.0 ],
					"presentation" : 1,
					"presentation_rect" : [ 89.5, -0.5, 89.5, 58.0 ],
					"varname" : "df.set_mbay[2]",
					"viewvisibility" : 1
				}

			}
, 			{
				"box" : 				{
					"args" : [ "fx" ],
					"bgmode" : 0,
					"border" : 1,
					"clickthrough" : 0,
					"enablehscroll" : 0,
					"enablevscroll" : 0,
					"id" : "obj-17",
					"lockeddragscroll" : 0,
					"maxclass" : "bpatcher",
					"name" : "st.mod.maxpat",
					"numinlets" : 3,
					"numoutlets" : 3,
					"offset" : [ 0.0, 0.0 ],
					"outlettype" : [ "multichannelsignal", "", "_" ],
					"patching_rect" : [ 52.0, 211.0, 90.0, 58.0 ],
					"presentation" : 1,
					"presentation_rect" : [ 0.0, -0.5, 89.5, 58.0 ],
					"varname" : "df.set_mbay",
					"viewvisibility" : 1
				}

			}
, 			{
				"box" : 				{
					"comment" : "",
					"id" : "obj-30",
					"index" : 0,
					"maxclass" : "outlet",
					"numinlets" : 1,
					"numoutlets" : 0,
					"patching_rect" : [ 51.999997333333255, 329.0, 30.0, 30.0 ]
				}

			}
, 			{
				"box" : 				{
					"comment" : "",
					"id" : "obj-35",
					"index" : 0,
					"maxclass" : "outlet",
					"numinlets" : 1,
					"numoutlets" : 0,
					"patching_rect" : [ 89.000005333333263, 329.0, 30.0, 30.0 ]
				}

			}
, 			{
				"box" : 				{
					"comment" : "",
					"id" : "obj-38",
					"index" : 0,
					"maxclass" : "outlet",
					"numinlets" : 1,
					"numoutlets" : 0,
					"patching_rect" : [ 126.999989333333247, 329.0, 30.0, 30.0 ]
				}

			}
, 			{
				"box" : 				{
					"comment" : "",
					"id" : "obj-41",
					"index" : 0,
					"maxclass" : "outlet",
					"numinlets" : 1,
					"numoutlets" : 0,
					"patching_rect" : [ 162.999989333333247, 329.0, 30.0, 30.0 ]
				}

			}
, 			{
				"box" : 				{
					"comment" : "",
					"id" : "obj-45",
					"index" : 0,
					"maxclass" : "outlet",
					"numinlets" : 1,
					"numoutlets" : 0,
					"patching_rect" : [ 199.999989333333247, 329.0, 30.0, 30.0 ]
				}

			}
, 			{
				"box" : 				{
					"comment" : "",
					"id" : "obj-46",
					"index" : 0,
					"maxclass" : "outlet",
					"numinlets" : 1,
					"numoutlets" : 0,
					"patching_rect" : [ 234.000020333333282, 329.0, 30.0, 30.0 ]
				}

			}
, 			{
				"box" : 				{
					"comment" : "",
					"id" : "obj-48",
					"index" : 0,
					"maxclass" : "outlet",
					"numinlets" : 1,
					"numoutlets" : 0,
					"patching_rect" : [ 271.000020333333282, 329.0, 30.0, 30.0 ]
				}

			}
, 			{
				"box" : 				{
					"comment" : "",
					"id" : "obj-50",
					"index" : 0,
					"maxclass" : "outlet",
					"numinlets" : 1,
					"numoutlets" : 0,
					"patching_rect" : [ 309.000020333333282, 329.0, 30.0, 30.0 ]
				}

			}
, 			{
				"box" : 				{
					"angle" : 270.0,
					"background" : 1,
					"bgcolor" : [ 1.0, 1.0, 1.0, 1.0 ],
					"id" : "obj-12",
					"maxclass" : "panel",
					"mode" : 0,
					"numinlets" : 1,
					"numoutlets" : 0,
					"patching_rect" : [ 819.499969000000078, 41.0, 30.0, 27.0 ],
					"presentation" : 1,
					"presentation_rect" : [ 0.0, -0.5, 1018.0, 274.0 ],
					"proportion" : 0.5,
					"rounded" : 0
				}

			}
 ],
		"lines" : [ 			{
				"patchline" : 				{
					"destination" : [ "obj-52", 0 ],
					"source" : [ "obj-1", 0 ]
				}

			}
, 			{
				"patchline" : 				{
					"destination" : [ "obj-7", 2 ],
					"source" : [ "obj-10", 0 ]
				}

			}
, 			{
				"patchline" : 				{
					"destination" : [ "obj-17", 0 ],
					"source" : [ "obj-13", 0 ]
				}

			}
, 			{
				"patchline" : 				{
					"destination" : [ "obj-2", 0 ],
					"source" : [ "obj-14", 0 ]
				}

			}
, 			{
				"patchline" : 				{
					"destination" : [ "obj-7", 0 ],
					"source" : [ "obj-15", 0 ]
				}

			}
, 			{
				"patchline" : 				{
					"destination" : [ "obj-19", 0 ],
					"source" : [ "obj-16", 0 ]
				}

			}
, 			{
				"patchline" : 				{
					"destination" : [ "obj-30", 0 ],
					"order" : 0,
					"source" : [ "obj-17", 0 ]
				}

			}
, 			{
				"patchline" : 				{
					"destination" : [ "obj-49", 0 ],
					"order" : 1,
					"source" : [ "obj-17", 0 ]
				}

			}
, 			{
				"patchline" : 				{
					"destination" : [ "obj-20", 0 ],
					"source" : [ "obj-18", 0 ]
				}

			}
, 			{
				"patchline" : 				{
					"destination" : [ "obj-41", 0 ],
					"order" : 0,
					"source" : [ "obj-19", 0 ]
				}

			}
, 			{
				"patchline" : 				{
					"destination" : [ "obj-44", 0 ],
					"order" : 1,
					"source" : [ "obj-19", 0 ]
				}

			}
, 			{
				"patchline" : 				{
					"destination" : [ "obj-35", 0 ],
					"order" : 0,
					"source" : [ "obj-2", 0 ]
				}

			}
, 			{
				"patchline" : 				{
					"destination" : [ "obj-5", 0 ],
					"order" : 1,
					"source" : [ "obj-2", 0 ]
				}

			}
, 			{
				"patchline" : 				{
					"destination" : [ "obj-43", 0 ],
					"order" : 1,
					"source" : [ "obj-20", 0 ]
				}

			}
, 			{
				"patchline" : 				{
					"destination" : [ "obj-45", 0 ],
					"order" : 0,
					"source" : [ "obj-20", 0 ]
				}

			}
, 			{
				"patchline" : 				{
					"destination" : [ "obj-42", 0 ],
					"order" : 1,
					"source" : [ "obj-21", 0 ]
				}

			}
, 			{
				"patchline" : 				{
					"destination" : [ "obj-46", 0 ],
					"order" : 0,
					"source" : [ "obj-21", 0 ]
				}

			}
, 			{
				"patchline" : 				{
					"destination" : [ "obj-3", 0 ],
					"order" : 1,
					"source" : [ "obj-22", 0 ]
				}

			}
, 			{
				"patchline" : 				{
					"destination" : [ "obj-48", 0 ],
					"order" : 0,
					"source" : [ "obj-22", 0 ]
				}

			}
, 			{
				"patchline" : 				{
					"destination" : [ "obj-21", 0 ],
					"source" : [ "obj-23", 0 ]
				}

			}
, 			{
				"patchline" : 				{
					"destination" : [ "obj-40", 0 ],
					"order" : 1,
					"source" : [ "obj-24", 0 ]
				}

			}
, 			{
				"patchline" : 				{
					"destination" : [ "obj-50", 0 ],
					"order" : 0,
					"source" : [ "obj-24", 0 ]
				}

			}
, 			{
				"patchline" : 				{
					"destination" : [ "obj-22", 0 ],
					"source" : [ "obj-25", 0 ]
				}

			}
, 			{
				"patchline" : 				{
					"destination" : [ "obj-24", 0 ],
					"source" : [ "obj-26", 0 ]
				}

			}
, 			{
				"patchline" : 				{
					"destination" : [ "obj-47", 0 ],
					"source" : [ "obj-27", 0 ]
				}

			}
, 			{
				"patchline" : 				{
					"destination" : [ "obj-6", 0 ],
					"source" : [ "obj-28", 0 ]
				}

			}
, 			{
				"patchline" : 				{
					"destination" : [ "obj-51", 0 ],
					"source" : [ "obj-29", 0 ]
				}

			}
, 			{
				"patchline" : 				{
					"destination" : [ "obj-1", 0 ],
					"source" : [ "obj-3", 0 ]
				}

			}
, 			{
				"patchline" : 				{
					"destination" : [ "obj-27", 0 ],
					"source" : [ "obj-3", 3 ]
				}

			}
, 			{
				"patchline" : 				{
					"destination" : [ "obj-28", 0 ],
					"source" : [ "obj-3", 2 ]
				}

			}
, 			{
				"patchline" : 				{
					"destination" : [ "obj-29", 0 ],
					"source" : [ "obj-3", 1 ]
				}

			}
, 			{
				"patchline" : 				{
					"destination" : [ "obj-17", 2 ],
					"source" : [ "obj-31", 0 ]
				}

			}
, 			{
				"patchline" : 				{
					"destination" : [ "obj-24", 2 ],
					"source" : [ "obj-32", 0 ]
				}

			}
, 			{
				"patchline" : 				{
					"destination" : [ "obj-22", 2 ],
					"source" : [ "obj-33", 0 ]
				}

			}
, 			{
				"patchline" : 				{
					"destination" : [ "obj-21", 2 ],
					"source" : [ "obj-34", 0 ]
				}

			}
, 			{
				"patchline" : 				{
					"destination" : [ "obj-20", 2 ],
					"source" : [ "obj-36", 0 ]
				}

			}
, 			{
				"patchline" : 				{
					"destination" : [ "obj-1", 0 ],
					"source" : [ "obj-4", 0 ]
				}

			}
, 			{
				"patchline" : 				{
					"destination" : [ "obj-27", 0 ],
					"source" : [ "obj-4", 3 ]
				}

			}
, 			{
				"patchline" : 				{
					"destination" : [ "obj-28", 0 ],
					"source" : [ "obj-4", 2 ]
				}

			}
, 			{
				"patchline" : 				{
					"destination" : [ "obj-29", 0 ],
					"source" : [ "obj-4", 1 ]
				}

			}
, 			{
				"patchline" : 				{
					"destination" : [ "obj-1", 0 ],
					"source" : [ "obj-40", 0 ]
				}

			}
, 			{
				"patchline" : 				{
					"destination" : [ "obj-27", 0 ],
					"source" : [ "obj-40", 3 ]
				}

			}
, 			{
				"patchline" : 				{
					"destination" : [ "obj-28", 0 ],
					"source" : [ "obj-40", 2 ]
				}

			}
, 			{
				"patchline" : 				{
					"destination" : [ "obj-29", 0 ],
					"source" : [ "obj-40", 1 ]
				}

			}
, 			{
				"patchline" : 				{
					"destination" : [ "obj-1", 0 ],
					"source" : [ "obj-42", 0 ]
				}

			}
, 			{
				"patchline" : 				{
					"destination" : [ "obj-27", 0 ],
					"source" : [ "obj-42", 3 ]
				}

			}
, 			{
				"patchline" : 				{
					"destination" : [ "obj-28", 0 ],
					"source" : [ "obj-42", 2 ]
				}

			}
, 			{
				"patchline" : 				{
					"destination" : [ "obj-29", 0 ],
					"source" : [ "obj-42", 1 ]
				}

			}
, 			{
				"patchline" : 				{
					"destination" : [ "obj-1", 0 ],
					"source" : [ "obj-43", 0 ]
				}

			}
, 			{
				"patchline" : 				{
					"destination" : [ "obj-27", 0 ],
					"source" : [ "obj-43", 3 ]
				}

			}
, 			{
				"patchline" : 				{
					"destination" : [ "obj-28", 0 ],
					"source" : [ "obj-43", 2 ]
				}

			}
, 			{
				"patchline" : 				{
					"destination" : [ "obj-29", 0 ],
					"source" : [ "obj-43", 1 ]
				}

			}
, 			{
				"patchline" : 				{
					"destination" : [ "obj-1", 0 ],
					"source" : [ "obj-44", 0 ]
				}

			}
, 			{
				"patchline" : 				{
					"destination" : [ "obj-27", 0 ],
					"source" : [ "obj-44", 3 ]
				}

			}
, 			{
				"patchline" : 				{
					"destination" : [ "obj-28", 0 ],
					"source" : [ "obj-44", 2 ]
				}

			}
, 			{
				"patchline" : 				{
					"destination" : [ "obj-29", 0 ],
					"source" : [ "obj-44", 1 ]
				}

			}
, 			{
				"patchline" : 				{
					"destination" : [ "obj-1", 0 ],
					"source" : [ "obj-49", 0 ]
				}

			}
, 			{
				"patchline" : 				{
					"destination" : [ "obj-27", 0 ],
					"source" : [ "obj-49", 3 ]
				}

			}
, 			{
				"patchline" : 				{
					"destination" : [ "obj-28", 0 ],
					"source" : [ "obj-49", 2 ]
				}

			}
, 			{
				"patchline" : 				{
					"destination" : [ "obj-29", 0 ],
					"source" : [ "obj-49", 1 ]
				}

			}
, 			{
				"patchline" : 				{
					"destination" : [ "obj-1", 0 ],
					"source" : [ "obj-5", 0 ]
				}

			}
, 			{
				"patchline" : 				{
					"destination" : [ "obj-27", 0 ],
					"source" : [ "obj-5", 3 ]
				}

			}
, 			{
				"patchline" : 				{
					"destination" : [ "obj-28", 0 ],
					"source" : [ "obj-5", 2 ]
				}

			}
, 			{
				"patchline" : 				{
					"destination" : [ "obj-29", 0 ],
					"source" : [ "obj-5", 1 ]
				}

			}
, 			{
				"patchline" : 				{
					"destination" : [ "obj-38", 0 ],
					"order" : 0,
					"source" : [ "obj-7", 0 ]
				}

			}
, 			{
				"patchline" : 				{
					"destination" : [ "obj-4", 0 ],
					"order" : 1,
					"source" : [ "obj-7", 0 ]
				}

			}
, 			{
				"patchline" : 				{
					"destination" : [ "obj-2", 2 ],
					"source" : [ "obj-8", 0 ]
				}

			}
, 			{
				"patchline" : 				{
					"destination" : [ "obj-19", 2 ],
					"source" : [ "obj-9", 0 ]
				}

			}
 ],
		"parameters" : 		{
			"obj-17::obj-16" : [ "live.text[233]", "live.text", 0 ],
			"obj-17::obj-30" : [ "live.text[85]", "live.text[12]", 0 ],
			"obj-17::obj-32" : [ "live.text", "live.text", 0 ],
			"obj-17::obj-38" : [ "toggle[129]", "toggle", 0 ],
			"obj-17::obj-57" : [ "live.text[220]", "live.text[12]", 0 ],
			"obj-17::obj-88" : [ "live.text[1]", "live.text", 0 ],
			"obj-19::obj-16" : [ "live.text[16]", "live.text", 0 ],
			"obj-19::obj-30" : [ "live.text[12]", "live.text[12]", 0 ],
			"obj-19::obj-32" : [ "live.text[14]", "live.text", 0 ],
			"obj-19::obj-38" : [ "toggle[3]", "toggle", 0 ],
			"obj-19::obj-57" : [ "live.text[13]", "live.text[12]", 0 ],
			"obj-19::obj-88" : [ "live.text[15]", "live.text", 0 ],
			"obj-20::obj-16" : [ "live.text[18]", "live.text", 0 ],
			"obj-20::obj-30" : [ "live.text[19]", "live.text[12]", 0 ],
			"obj-20::obj-32" : [ "live.text[21]", "live.text", 0 ],
			"obj-20::obj-38" : [ "toggle[4]", "toggle", 0 ],
			"obj-20::obj-57" : [ "live.text[20]", "live.text[12]", 0 ],
			"obj-20::obj-88" : [ "live.text[17]", "live.text", 0 ],
			"obj-21::obj-16" : [ "live.text[26]", "live.text", 0 ],
			"obj-21::obj-30" : [ "live.text[23]", "live.text[12]", 0 ],
			"obj-21::obj-32" : [ "live.text[25]", "live.text", 0 ],
			"obj-21::obj-38" : [ "toggle[5]", "toggle", 0 ],
			"obj-21::obj-57" : [ "live.text[24]", "live.text[12]", 0 ],
			"obj-21::obj-88" : [ "live.text[22]", "live.text", 0 ],
			"obj-22::obj-16" : [ "live.text[31]", "live.text", 0 ],
			"obj-22::obj-30" : [ "live.text[29]", "live.text[12]", 0 ],
			"obj-22::obj-32" : [ "live.text[27]", "live.text", 0 ],
			"obj-22::obj-38" : [ "toggle[6]", "toggle", 0 ],
			"obj-22::obj-57" : [ "live.text[30]", "live.text[12]", 0 ],
			"obj-22::obj-88" : [ "live.text[28]", "live.text", 0 ],
			"obj-24::obj-16" : [ "live.text[32]", "live.text", 0 ],
			"obj-24::obj-30" : [ "live.text[36]", "live.text[12]", 0 ],
			"obj-24::obj-32" : [ "live.text[35]", "live.text", 0 ],
			"obj-24::obj-38" : [ "toggle[7]", "toggle", 0 ],
			"obj-24::obj-57" : [ "live.text[34]", "live.text[12]", 0 ],
			"obj-24::obj-88" : [ "live.text[33]", "live.text", 0 ],
			"obj-2::obj-16" : [ "live.text[2]", "live.text", 0 ],
			"obj-2::obj-30" : [ "live.text[3]", "live.text[12]", 0 ],
			"obj-2::obj-32" : [ "live.text[4]", "live.text", 0 ],
			"obj-2::obj-38" : [ "toggle[1]", "toggle", 0 ],
			"obj-2::obj-57" : [ "live.text[5]", "live.text[12]", 0 ],
			"obj-2::obj-88" : [ "live.text[6]", "live.text", 0 ],
			"obj-3::obj-44" : [ "live.slider[4]", "1", 0 ],
			"obj-3::obj-45" : [ "live.slider[5]", "2", 0 ],
			"obj-3::obj-46" : [ "live.slider[6]", "3", 0 ],
			"obj-3::obj-47" : [ "live.slider[7]", "4", 0 ],
			"obj-40::obj-44" : [ "live.slider", "1", 0 ],
			"obj-40::obj-45" : [ "live.slider[1]", "2", 0 ],
			"obj-40::obj-46" : [ "live.slider[2]", "3", 0 ],
			"obj-40::obj-47" : [ "live.slider[3]", "4", 0 ],
			"obj-42::obj-44" : [ "live.slider[8]", "1", 0 ],
			"obj-42::obj-45" : [ "live.slider[9]", "2", 0 ],
			"obj-42::obj-46" : [ "live.slider[10]", "3", 0 ],
			"obj-42::obj-47" : [ "live.slider[11]", "4", 0 ],
			"obj-43::obj-44" : [ "live.slider[13]", "1", 0 ],
			"obj-43::obj-45" : [ "live.slider[14]", "2", 0 ],
			"obj-43::obj-46" : [ "live.slider[15]", "3", 0 ],
			"obj-43::obj-47" : [ "live.slider[12]", "4", 0 ],
			"obj-44::obj-44" : [ "live.slider[16]", "1", 0 ],
			"obj-44::obj-45" : [ "live.slider[17]", "2", 0 ],
			"obj-44::obj-46" : [ "live.slider[18]", "3", 0 ],
			"obj-44::obj-47" : [ "live.slider[19]", "4", 0 ],
			"obj-49::obj-44" : [ "live.slider[28]", "1", 0 ],
			"obj-49::obj-45" : [ "live.slider[29]", "2", 0 ],
			"obj-49::obj-46" : [ "live.slider[30]", "3", 0 ],
			"obj-49::obj-47" : [ "live.slider[31]", "4", 0 ],
			"obj-4::obj-44" : [ "live.slider[20]", "1", 0 ],
			"obj-4::obj-45" : [ "live.slider[21]", "2", 0 ],
			"obj-4::obj-46" : [ "live.slider[22]", "3", 0 ],
			"obj-4::obj-47" : [ "live.slider[23]", "4", 0 ],
			"obj-5::obj-44" : [ "live.slider[27]", "1", 0 ],
			"obj-5::obj-45" : [ "live.slider[24]", "2", 0 ],
			"obj-5::obj-46" : [ "live.slider[25]", "3", 0 ],
			"obj-5::obj-47" : [ "live.slider[26]", "4", 0 ],
			"obj-7::obj-16" : [ "live.text[11]", "live.text", 0 ],
			"obj-7::obj-30" : [ "live.text[10]", "live.text[12]", 0 ],
			"obj-7::obj-32" : [ "live.text[7]", "live.text", 0 ],
			"obj-7::obj-38" : [ "toggle[2]", "toggle", 0 ],
			"obj-7::obj-57" : [ "live.text[9]", "live.text[12]", 0 ],
			"obj-7::obj-88" : [ "live.text[8]", "live.text", 0 ],
			"parameterbanks" : 			{

			}
,
			"parameter_overrides" : 			{
				"obj-19::obj-16" : 				{
					"parameter_longname" : "live.text[16]"
				}
,
				"obj-19::obj-30" : 				{
					"parameter_longname" : "live.text[12]"
				}
,
				"obj-19::obj-32" : 				{
					"parameter_longname" : "live.text[14]"
				}
,
				"obj-19::obj-57" : 				{
					"parameter_longname" : "live.text[13]"
				}
,
				"obj-19::obj-88" : 				{
					"parameter_longname" : "live.text[15]"
				}
,
				"obj-20::obj-16" : 				{
					"parameter_longname" : "live.text[18]"
				}
,
				"obj-20::obj-30" : 				{
					"parameter_longname" : "live.text[19]"
				}
,
				"obj-20::obj-32" : 				{
					"parameter_longname" : "live.text[21]"
				}
,
				"obj-20::obj-57" : 				{
					"parameter_longname" : "live.text[20]"
				}
,
				"obj-20::obj-88" : 				{
					"parameter_longname" : "live.text[17]"
				}
,
				"obj-21::obj-16" : 				{
					"parameter_longname" : "live.text[26]"
				}
,
				"obj-21::obj-30" : 				{
					"parameter_longname" : "live.text[23]"
				}
,
				"obj-21::obj-32" : 				{
					"parameter_longname" : "live.text[25]"
				}
,
				"obj-21::obj-57" : 				{
					"parameter_longname" : "live.text[24]"
				}
,
				"obj-21::obj-88" : 				{
					"parameter_longname" : "live.text[22]"
				}
,
				"obj-22::obj-16" : 				{
					"parameter_longname" : "live.text[31]"
				}
,
				"obj-22::obj-30" : 				{
					"parameter_longname" : "live.text[29]"
				}
,
				"obj-22::obj-32" : 				{
					"parameter_longname" : "live.text[27]"
				}
,
				"obj-22::obj-57" : 				{
					"parameter_longname" : "live.text[30]"
				}
,
				"obj-22::obj-88" : 				{
					"parameter_longname" : "live.text[28]"
				}
,
				"obj-24::obj-16" : 				{
					"parameter_longname" : "live.text[32]"
				}
,
				"obj-24::obj-30" : 				{
					"parameter_longname" : "live.text[36]"
				}
,
				"obj-24::obj-32" : 				{
					"parameter_longname" : "live.text[35]"
				}
,
				"obj-24::obj-57" : 				{
					"parameter_longname" : "live.text[34]"
				}
,
				"obj-24::obj-88" : 				{
					"parameter_longname" : "live.text[33]"
				}
,
				"obj-2::obj-16" : 				{
					"parameter_longname" : "live.text[2]"
				}
,
				"obj-2::obj-30" : 				{
					"parameter_longname" : "live.text[3]"
				}
,
				"obj-2::obj-32" : 				{
					"parameter_longname" : "live.text[4]"
				}
,
				"obj-2::obj-57" : 				{
					"parameter_longname" : "live.text[5]"
				}
,
				"obj-2::obj-88" : 				{
					"parameter_longname" : "live.text[6]"
				}
,
				"obj-3::obj-44" : 				{
					"parameter_longname" : "live.slider[4]"
				}
,
				"obj-3::obj-45" : 				{
					"parameter_longname" : "live.slider[5]"
				}
,
				"obj-3::obj-46" : 				{
					"parameter_longname" : "live.slider[6]"
				}
,
				"obj-3::obj-47" : 				{
					"parameter_longname" : "live.slider[7]"
				}
,
				"obj-42::obj-44" : 				{
					"parameter_longname" : "live.slider[8]"
				}
,
				"obj-42::obj-45" : 				{
					"parameter_longname" : "live.slider[9]"
				}
,
				"obj-42::obj-46" : 				{
					"parameter_longname" : "live.slider[10]"
				}
,
				"obj-42::obj-47" : 				{
					"parameter_longname" : "live.slider[11]"
				}
,
				"obj-43::obj-44" : 				{
					"parameter_longname" : "live.slider[13]"
				}
,
				"obj-43::obj-45" : 				{
					"parameter_longname" : "live.slider[14]"
				}
,
				"obj-43::obj-46" : 				{
					"parameter_longname" : "live.slider[15]"
				}
,
				"obj-43::obj-47" : 				{
					"parameter_longname" : "live.slider[12]"
				}
,
				"obj-44::obj-44" : 				{
					"parameter_longname" : "live.slider[16]"
				}
,
				"obj-44::obj-45" : 				{
					"parameter_longname" : "live.slider[17]"
				}
,
				"obj-44::obj-46" : 				{
					"parameter_longname" : "live.slider[18]"
				}
,
				"obj-44::obj-47" : 				{
					"parameter_longname" : "live.slider[19]"
				}
,
				"obj-49::obj-44" : 				{
					"parameter_longname" : "live.slider[28]"
				}
,
				"obj-49::obj-45" : 				{
					"parameter_longname" : "live.slider[29]"
				}
,
				"obj-49::obj-46" : 				{
					"parameter_longname" : "live.slider[30]"
				}
,
				"obj-49::obj-47" : 				{
					"parameter_longname" : "live.slider[31]"
				}
,
				"obj-4::obj-44" : 				{
					"parameter_longname" : "live.slider[20]"
				}
,
				"obj-4::obj-45" : 				{
					"parameter_longname" : "live.slider[21]"
				}
,
				"obj-4::obj-46" : 				{
					"parameter_longname" : "live.slider[22]"
				}
,
				"obj-4::obj-47" : 				{
					"parameter_longname" : "live.slider[23]"
				}
,
				"obj-5::obj-44" : 				{
					"parameter_longname" : "live.slider[27]"
				}
,
				"obj-5::obj-45" : 				{
					"parameter_longname" : "live.slider[24]"
				}
,
				"obj-5::obj-46" : 				{
					"parameter_longname" : "live.slider[25]"
				}
,
				"obj-5::obj-47" : 				{
					"parameter_longname" : "live.slider[26]"
				}
,
				"obj-7::obj-16" : 				{
					"parameter_longname" : "live.text[11]"
				}
,
				"obj-7::obj-30" : 				{
					"parameter_longname" : "live.text[10]"
				}
,
				"obj-7::obj-32" : 				{
					"parameter_longname" : "live.text[7]"
				}
,
				"obj-7::obj-57" : 				{
					"parameter_longname" : "live.text[9]"
				}
,
				"obj-7::obj-88" : 				{
					"parameter_longname" : "live.text[8]"
				}

			}
,
			"inherited_shortname" : 1
		}
,
		"dependency_cache" : [ 			{
				"name" : "st.mod.maxpat",
				"bootpath" : "/Volumes/Libraries/Drive/max/df.s2/current/lib/abs/st",
				"patcherrelativepath" : ".",
				"type" : "JSON",
				"implicit" : 1
			}
, 			{
				"name" : "_initpoly.maxpat",
				"bootpath" : "/Volumes/Libraries/Drive/max/df.s2/current/lib/abs/init",
				"patcherrelativepath" : "../init",
				"type" : "JSON",
				"implicit" : 1
			}
, 			{
				"name" : "df.wait.maxpat",
				"bootpath" : "/Volumes/Libraries/Drive/max/df.s2/current/lib/abs/df",
				"patcherrelativepath" : "../df",
				"type" : "JSON",
				"implicit" : 1
			}
, 			{
				"name" : "st.getModDir.maxpat",
				"bootpath" : "/Volumes/Libraries/Drive/max/df.s2/current/lib/abs/st",
				"patcherrelativepath" : ".",
				"type" : "JSON",
				"implicit" : 1
			}
, 			{
				"name" : "settings.ini",
				"bootpath" : "/Volumes/Libraries/Drive/max/df.s2/current/lib",
				"patcherrelativepath" : "../..",
				"type" : "TEXT",
				"implicit" : 1
			}
, 			{
				"name" : "df.locktoggle.maxpat",
				"bootpath" : "/Volumes/Libraries/Drive/max/df.s2/current/lib/abs/df",
				"patcherrelativepath" : "../df",
				"type" : "JSON",
				"implicit" : 1
			}
, 			{
				"name" : "df.stripext.maxpat",
				"bootpath" : "/Volumes/Libraries/Drive/max/df.s2/current/lib/abs/df",
				"patcherrelativepath" : "../df",
				"type" : "JSON",
				"implicit" : 1
			}
, 			{
				"name" : "st.array.sndSend.maxpat",
				"bootpath" : "/Volumes/Libraries/Drive/max/df.s2/current/lib/abs/st",
				"patcherrelativepath" : ".",
				"type" : "JSON",
				"implicit" : 1
			}
, 			{
				"name" : "dot.mxo",
				"type" : "iLaX"
			}
 ],
		"autosave" : 0,
		"styles" : [ 			{
				"name" : "green_it",
				"default" : 				{
					"textcolor" : [ 0.450980392156863, 0.843137254901961, 0.325490196078431, 1.0 ],
					"fontface" : [ 2 ]
				}
,
				"parentstyle" : "",
				"multi" : 0
			}
, 			{
				"name" : "inverted",
				"default" : 				{
					"textcolor_inverse" : [ 0.0, 0.0, 0.0, 1.0 ],
					"accentcolor" : [ 0.607843137254902, 0.607843137254902, 0.607843137254902, 1.0 ],
					"bgcolor" : [ 0.827450980392157, 0.827450980392157, 0.827450980392157, 1.0 ]
				}
,
				"parentstyle" : "",
				"multi" : 0
			}
, 			{
				"name" : "orange_it",
				"default" : 				{
					"textcolor" : [ 0.996078431372549, 0.803921568627451, 0.388235294117647, 1.0 ],
					"fontface" : [ 2 ]
				}
,
				"parentstyle" : "",
				"multi" : 0
			}
 ]
	}

}
